<svg width="225" height="42" viewBox="0 0 225 42" fill="none" xmlns="http://www.w3.org/2000/svg">
<rect y="0.336548" width="225.001" height="40.9759" rx="20.4879" fill="#FAFAFA"/>
<g clip-path="url(#clip0_302_707)">
<rect x="88.8105" y="5.42505" width="29.1892" height="29.1892" rx="14.5946" transform="rotate(-0.173721 88.8105 5.42505)" fill="#FFE75C"/>
<path d="M111.305 35.0291C111.41 35.4506 111.418 35.8906 111.328 36.3156C111.238 36.7407 111.052 37.1396 110.785 37.4825C110.518 37.8252 110.177 38.1029 109.787 38.2942C109.397 38.4855 108.969 38.5856 108.534 38.587L102.598 38.605L99.8209 40.1701L99.8206 40.0871C98.5545 40.091 97.8269 39.678 98.3733 35.0268C98.1202 33.7199 96.9422 28.5758 96.2871 24.7378C95.6953 21.2316 96.9991 19.9408 100.605 17.8957C102.127 13.3245 106.113 13.5823 106.889 16.3198C107.665 19.0574 110.233 30.6942 111.305 35.0291Z" fill="#66BCFF"/>
<path d="M111.305 35.029C110.758 32.789 109.791 28.6405 108.887 24.7617L104.236 24.423L100.653 26.9662L98.5859 29.7539L97.5317 31.1893C97.9107 32.9732 98.2263 34.4252 98.3527 35.0476C97.8064 39.6988 98.5341 40.1117 99.8003 40.1078L103.47 38.54L111.978 37.9122C111.768 36.9788 111.536 36.0039 111.305 35.029Z" fill="#EB459F"/>
<path d="M101.785 32.7213C102.042 31.172 101.902 29.8581 101.473 29.7868C101.043 29.7154 100.486 30.9135 100.229 32.463C99.9716 34.0122 100.112 35.3259 100.541 35.3973C100.971 35.4686 101.528 34.2705 101.785 32.7213Z" fill="black"/>
<path d="M99.0604 28.8806C99.2668 28.5064 99.4942 28.1321 99.7215 27.7993C102.057 24.4088 104.254 23.4889 106.371 23.4824L109.007 23.4744C109.047 23.4754 109.085 23.4856 109.12 23.5042C109.154 23.5228 109.184 23.5495 109.206 23.5818C109.229 23.6141 109.243 23.6512 109.249 23.6902C109.254 23.7292 109.25 23.7689 109.237 23.8059L108.887 24.7617C104.839 24.774 103.407 24.6538 100.055 28.1926L98.5858 29.7539L99.0604 28.8806Z" fill="#D11583"/>
<path d="M100.055 28.3173C98.665 28.5706 97.5671 29.3004 96.9483 30.5892C96.7726 30.9467 96.5182 31.2597 96.2039 31.5047L92.4759 34.2352C92.0569 34.5345 91.7656 34.9802 91.6594 35.4841C91.5534 35.988 91.6403 36.5133 91.903 36.9561C92.0862 37.2669 92.3479 37.5239 92.6616 37.7014C92.9756 37.879 93.3306 37.9709 93.6911 37.9677L95.2479 37.963C98.4804 36.1474 99.9712 34.9182 100.737 34.2101C101.503 33.5021 102.35 32.2333 102.2 30.7808C102.051 29.3283 101.632 28.0219 100.055 28.3173Z" fill="white"/>
<path d="M101.185 17.5826C100.684 16.7539 100.017 15.6558 99.7659 15.1376C99.5152 14.6194 98.9137 14.7458 99.7717 17.068C97.6937 16.2855 97.2587 16.5774 97.1558 16.8683C97.0529 17.1592 97.51 17.3032 98.3832 17.7987C99.2565 18.2942 100.192 18.8933 100.192 18.8933L101.185 17.5826Z" fill="#66BCFF"/>
<path d="M103.344 17.6383C103.695 17.2014 103.818 16.7236 103.61 16.5581C103.402 16.3927 103.174 16.4764 102.864 16.8925C102.73 17.0617 102.585 17.2217 102.429 17.3712C102.078 17.7044 102.161 17.9532 102.328 18.098C102.494 18.2428 102.992 18.0753 103.344 17.6383Z" fill="black"/>
<path d="M106.868 16.3406C106.868 16.3406 104.395 15.2273 103.334 14.5455C102.273 13.8638 101.731 12.8483 102.207 12.577C102.684 12.3057 103.599 12.9464 104.245 13.7747C104.22 12.3011 104.468 11.989 104.862 11.967C105.257 11.9451 105.3 12.5261 105.323 13.3563C105.346 14.1865 105.493 14.5182 106.117 15.0768C106.491 15.4113 106.753 15.8524 106.868 16.3406Z" fill="#3442D9"/>
<path d="M97.8187 23.2593C97.2375 23.2611 96.7378 22.7644 97.1918 21.8913C97.6458 21.0181 99.1374 20.1418 99.8629 19.8075C100.588 19.4732 100.922 19.8043 100.943 20.0533C100.965 20.3023 100.862 20.6762 100.345 21.342C99.8281 22.0078 98.8772 23.2561 97.8187 23.2593Z" fill="white"/>
<path d="M98.2752 23.1957L97.9227 23.2591L97.4194 21.5585L97.709 21.2463L98.2752 23.1957Z" fill="#8CD9FF"/>
<path d="M99.559 22.2785L99.2695 22.5699L98.6818 20.4753L98.9925 20.2668L99.559 22.2785Z" fill="#8CD9FF"/>
<path d="M100.717 20.822L100.449 21.1965L100.029 19.7448L100.382 19.6814L100.717 20.822Z" fill="#8CD9FF"/>
<path d="M100.256 19.495C100.641 19.6773 101.037 19.8357 101.441 19.9688" stroke="black" stroke-linecap="round" stroke-linejoin="round"/>
<path d="M109.538 27.4997C109.14 27.1858 108.653 27.0057 108.146 26.985C107.067 26.9883 106.468 28.0487 106.264 29.0664C106.231 29.2297 106.143 29.3765 106.015 29.4827C105.887 29.589 105.726 29.6478 105.56 29.6497L105.414 29.6502C105.321 29.6332 105.231 29.5976 105.152 29.5451C105.072 29.4928 105.004 29.425 104.952 29.3456C104.899 29.2663 104.863 29.1771 104.846 29.0836C104.828 28.9898 104.83 28.8937 104.851 28.8009C105.24 26.8278 106.523 25.5577 108.142 25.5528C108.41 25.5553 108.669 25.6488 108.877 25.8179C109.085 25.9869 109.229 26.2216 109.286 26.4834L109.538 27.4997Z" fill="white"/>
<path d="M111.305 35.0291C111.351 35.2145 111.359 35.4075 111.329 35.5961C111.298 35.7849 111.23 35.9654 111.127 36.1268C111.025 36.2882 110.891 36.4271 110.733 36.5351C110.575 36.6433 110.397 36.7181 110.21 36.7552L109.691 36.7983C108.508 36.8019 107.281 36.0999 106.323 34.8781C106.265 34.8019 106.223 34.7153 106.199 34.623C106.175 34.5305 106.17 34.4344 106.183 34.3399C106.196 34.2454 106.228 34.1544 106.276 34.0723C106.325 33.9899 106.389 33.9181 106.465 33.8606C106.54 33.8004 106.627 33.7561 106.719 33.7305C106.812 33.7051 106.909 33.6988 107.004 33.712C107.1 33.7254 107.191 33.7579 107.273 33.8081C107.356 33.8581 107.427 33.9243 107.482 34.0028C108.149 34.8518 108.96 35.3683 109.687 35.3661C110.413 35.3639 110.848 34.9474 111.158 34.4068C111.2 34.635 111.263 34.8424 111.305 35.0291Z" fill="#2331B5"/>
<path d="M109.896 29.097C109.75 29.0983 109.607 29.145 109.488 29.2309C109.37 29.3167 109.28 29.4376 109.233 29.5764L108.369 31.9245C108.293 32.145 108.296 32.3847 108.376 32.6037C108.456 32.8226 108.608 33.0073 108.808 33.1271C108.899 33.1823 109.001 33.2166 109.106 33.2271C109.211 33.2378 109.318 33.2244 109.417 33.1882C109.517 33.1519 109.607 33.0938 109.681 33.018C109.755 32.9422 109.811 32.8507 109.845 32.7503L110.401 31.2334C110.254 30.5489 110.085 29.8437 109.896 29.097Z" fill="#5865F2"/>
<path d="M108.808 33.127C108.608 33.0072 108.456 32.8225 108.375 32.6036C108.295 32.3846 108.293 32.1449 108.369 31.9244L108.616 31.2802C108.657 31.1678 108.722 31.0657 108.807 30.9808C108.891 30.896 108.993 30.8305 109.106 30.7887C109.218 30.747 109.338 30.7301 109.457 30.739C109.577 30.748 109.693 30.7827 109.798 30.8408C109.969 30.9401 110.1 31.0956 110.169 31.2811C110.237 31.4665 110.239 31.6699 110.174 31.8567L109.845 32.7502C109.811 32.8506 109.755 32.9421 109.681 33.0179C109.607 33.0937 109.517 33.1518 109.417 33.1881C109.318 33.2243 109.211 33.2377 109.106 33.227C109 33.2165 108.899 33.1824 108.808 33.127Z" fill="#FFE75C"/>
</g>
<g clip-path="url(#clip1_302_707)">
<rect x="73.2432" y="5.47229" width="29.1892" height="29.1892" rx="14.5946" transform="rotate(-0.173721 73.2432 5.47229)" fill="#3442D9"/>
<path d="M79.7535 16.9235C78.894 14.1031 78.4332 12.7553 79.9667 11.9204C81.5002 11.0855 86.1721 11.6318 88.3531 12.1441C90.5342 12.6564 90.8472 13.1951 89.4214 15.3374L79.7535 16.9235Z" fill="#FFF4B3"/>
<path d="M78.8344 42.312C78.4768 33.9273 78.6632 26.9524 78.9218 23.2362C77.5284 22.3271 76.8828 21.6233 76.6117 21.2297C76.5554 21.1539 76.5265 21.0613 76.5302 20.9668C76.5336 20.8726 76.5691 20.7822 76.6309 20.7108C78.8227 17.9435 80.7043 15.53 82.6728 14.4031C84.6413 13.2763 87.3388 12.9775 91.6483 17.2404C91.6896 17.295 91.7102 17.3624 91.7066 17.4307C91.7031 17.4992 91.6755 17.5641 91.6287 17.614C91.2885 17.9538 90.9291 18.2737 90.5523 18.5721C91.4288 20.1262 92.7021 22.4886 92.7021 22.4886L93.6984 22.4856C94.3369 22.4837 94.9502 22.7355 95.403 23.1858C95.8561 23.6359 96.1116 24.2474 96.1135 24.8861C96.1401 26.8164 95.6905 29.1425 94.807 32.1342C98.8021 35.3602 97.8474 42.2336 97.8474 42.2336L78.8344 42.312Z" fill="#29CC7A"/>
<path d="M94.8067 32.1341C94.9299 31.6978 95.0532 31.3031 95.1558 30.8876L92.0268 32.6407C92.0268 32.6407 87.0558 29.3139 78.7261 27.2635C78.5925 31.1246 78.5876 36.3554 78.834 42.3119L97.8471 42.2542C97.8471 42.2542 98.8018 35.36 94.8067 32.1341Z" fill="#8CD9FF"/>
<path d="M95.5982 32.8998C95.3554 32.6238 95.0908 32.3679 94.8071 32.1342C94.9304 31.6979 95.0537 31.3031 95.1562 30.8877L92.0273 32.6408C92.0273 32.6408 87.0563 29.314 78.7266 27.2635C78.7073 27.741 78.6881 28.26 78.6897 28.7789C85.0699 31.3957 88.5085 35.9103 88.9222 42.2814L93.634 42.2671C94.4532 38.6114 95.1077 35.4128 95.5982 32.8998Z" fill="#BAE8FF"/>
<path d="M81.2303 24.8274L81.3134 24.8271C81.3548 24.7855 81.3962 24.7646 81.4168 24.7022L83.2049 18.8641C83.2169 18.8396 83.2237 18.8128 83.2242 18.7854C83.2247 18.7582 83.2195 18.7311 83.2084 18.7062C83.1975 18.6811 83.1811 18.6587 83.1607 18.6407C83.1401 18.6227 83.1159 18.6095 83.0896 18.6019C83.0634 18.5943 83.0358 18.5925 83.0088 18.5966C82.9818 18.6008 82.9561 18.6108 82.9333 18.6261C82.9107 18.6413 82.8917 18.6613 82.8775 18.6848C82.8634 18.7081 82.8546 18.7342 82.8517 18.7614L81.1253 24.4125C80.3711 24.0935 79.6474 23.7065 78.9631 23.2567L78.9216 23.2568C78.922 23.3814 78.9016 23.5267 78.902 23.6513C79.6206 24.1105 80.379 24.5043 81.1681 24.8275L81.2303 24.8274Z" fill="black"/>
<path d="M88.9236 15.4219L81.4943 15.9841C89.8018 17.5365 90.1553 17.7637 88.9236 15.4219Z" fill="black"/>
<path d="M87.0826 20.8266C87.3691 20.7099 87.4191 20.1676 87.1941 19.6155C86.9691 19.0636 86.5545 18.7108 86.2678 18.8275C85.9811 18.9444 85.9313 19.4865 86.1563 20.0385C86.3811 20.5906 86.7959 20.9435 87.0826 20.8266Z" fill="black"/>
<path d="M89.2261 21.9677C89.594 21.2675 89.5469 20.5183 89.1207 20.2944C88.6945 20.0702 88.0508 20.4564 87.6826 21.1564C87.3147 21.8566 87.362 22.6058 87.788 22.8299C88.2142 23.0538 88.8581 22.6679 89.2261 21.9677Z" stroke="white" stroke-miterlimit="10"/>
<path d="M92.2826 21.9626C92.6506 21.2626 92.6034 20.5134 92.1772 20.2893C91.7511 20.0654 91.1073 20.4513 90.7393 21.1515C90.3714 21.8517 90.4185 22.6009 90.8447 22.8248C91.2709 23.0488 91.9146 22.6628 92.2826 21.9626Z" stroke="white" stroke-miterlimit="10"/>
<path d="M90.1794 20.7169C90.3706 20.6391 90.3502 20.1458 90.1337 19.6149C89.9175 19.0841 89.5872 18.7169 89.3961 18.7949C89.2051 18.8727 89.2255 19.366 89.4417 19.897C89.6582 20.4277 89.9885 20.7949 90.1794 20.7169Z" fill="black"/>
<path d="M92.1732 26.1434C90.5706 26.1534 89.0138 25.6081 87.768 24.6C86.4779 23.5453 86.9964 23.4192 87.8059 23.396C88.6153 23.3728 92.4973 23.5063 93.6186 23.6689C94.74 23.8316 94.9543 26.0519 92.1732 26.1434Z" fill="#912869"/>
<path d="M92.1732 26.1434C90.5706 26.1534 89.0138 25.6081 87.768 24.6C86.4779 23.5453 86.9964 23.4192 87.8059 23.396C88.6153 23.3728 92.4973 23.5063 93.6186 23.6689C94.74 23.8316 94.9543 26.0519 92.1732 26.1434Z" fill="#611B46"/>
<path d="M92.0975 28.4684L92.0122 27.7007C92.5984 27.6522 93.1694 27.4881 93.692 27.2182" stroke="black" stroke-linecap="round" stroke-linejoin="round"/>
<path d="M92.941 26.0373C91.8169 24.9613 90.2992 24.1564 87.4976 24.3517C89.9121 26.5654 92.4226 26.1842 92.941 26.0373Z" fill="#EB459F"/>
<path d="M89.3564 21.2325L90.6226 21.2287" stroke="white" stroke-miterlimit="10"/>
<path d="M87.4475 21.4873L82.0857 19.3241C81.9733 19.2809 81.852 19.2657 81.7325 19.2793C81.6128 19.2932 81.4983 19.3357 81.3985 19.4032C81.2988 19.4708 81.2169 19.5615 81.1599 19.6675C81.1028 19.7736 81.0722 19.8918 81.0707 20.0122C81.0686 20.1539 81.1093 20.2929 81.1875 20.4112C81.2655 20.5293 81.3775 20.6213 81.5086 20.6751L81.862 20.84" stroke="white" stroke-miterlimit="10" stroke-linecap="round"/>
<path d="M86.3184 18.7716C86.7396 18.7812 87.1599 18.7238 87.5633 18.6018" stroke="black" stroke-miterlimit="10" stroke-linecap="round"/>
<path d="M89.4317 18.7622C89.6972 18.7683 89.9604 18.7106 90.1991 18.5939" stroke="black" stroke-miterlimit="10" stroke-linecap="round"/>
<path d="M80.4569 16.1948C87.8667 16.0686 90.3757 15.2307 92.4906 14.4563C94.6054 13.6818 94.3961 13.0805 92.7772 13.1477C91.1584 13.2149 85.6228 15.3489 80.4569 16.1948Z" fill="#FFF4B3"/>
<path d="M80.4573 16.1948L82.989 15.9796L89.0671 14.7572L87.5473 13.2673L80.3032 13.2893L80.4573 16.1948Z" fill="#FFF4B3"/>
<path d="M92.7477 23.8168L91.2944 23.7382C91.4631 24.6094 91.8796 25.0648 92.2321 24.9185C92.5845 24.7721 92.7067 24.0037 92.7477 23.8168Z" fill="white"/>
<path d="M88.2637 23.6436C88.4535 24.6393 88.8287 25.1571 89.1811 24.99C89.5334 24.8228 89.6139 23.9923 89.6752 23.66L88.2637 23.6436Z" fill="white"/>
<path d="M89.9148 13.7791C86.7182 14.6459 83.4776 15.3417 80.2069 15.8635" stroke="#FFC619" stroke-width="2" stroke-miterlimit="10" stroke-linecap="round"/>
</g>
<g clip-path="url(#clip2_302_707)">
<rect x="51.8408" y="6.51013" width="29.1892" height="29.1892" rx="14.5946" transform="rotate(-0.173721 51.8408 6.51013)" fill="#7196FF"/>
<path d="M62.8169 31.4274L62.1777 32.0651L66.8479 36.6679L67.4873 36.0301L62.8169 31.4274Z" fill="#2E3338"/>
<path d="M65.7282 31.4254L65.0888 32.0631L69.7591 36.6658L70.3984 36.0281L65.7282 31.4254Z" fill="#2E3338"/>
<path d="M70.9713 30.6105C72.1735 29.4057 72.9149 27.8234 73.0681 26.1355C73.2213 24.4476 72.7767 22.7595 71.8109 21.3615L68.781 16.9721L65.2126 16.983L65.2296 22.5934C65.2311 23.0808 65.0372 23.5487 64.6907 23.8944C64.3442 24.24 63.8734 24.435 63.3818 24.4365L57.6447 24.4539L57.6485 25.7246C57.6542 27.5929 58.4068 29.3826 59.7412 30.7015C61.0757 32.0204 62.8833 32.7607 64.7675 32.7601L65.8124 32.7569C67.7483 32.7349 69.5992 31.9649 70.9713 30.6105Z" fill="#FFD836"/>
<path d="M68.7746 14.9198C69.721 14.917 70.6298 15.287 71.3011 15.9485C71.9722 16.6101 72.351 17.5089 72.3538 18.4473L72.3566 19.3661L65.2196 19.3877L65.2167 18.4494C65.2191 17.5144 65.5947 16.6183 66.2614 15.9569C66.928 15.2955 67.8316 14.9227 68.7746 14.9198Z" fill="#FFD836"/>
<path d="M73.3975 18.0531C73.5698 18.221 73.706 18.4217 73.7982 18.6431C73.8903 18.8645 73.9365 19.1021 73.9337 19.3417L70.523 19.352C70.3962 19.3499 70.2728 19.3111 70.168 19.2403C70.0631 19.1696 69.9814 19.0701 69.9329 18.9539C69.8844 18.8377 69.8711 18.7101 69.8948 18.5865C69.9185 18.463 69.978 18.3491 70.0662 18.2587L70.7542 17.5724L70.7512 16.5949C70.7507 16.4687 70.7996 16.3471 70.8874 16.2557C70.9754 16.1643 71.0956 16.1102 71.2229 16.1048C71.3529 16.1114 71.4773 16.1589 71.5782 16.2406L73.3975 18.0531Z" fill="#FF9A15"/>
<path d="M68.7744 14.9196L67.7294 14.9228C66.4433 14.9251 65.2085 14.4228 64.2947 13.5257L63.7803 12.9603L63.7813 13.3122C63.7848 14.4528 64.2451 15.5453 65.061 16.3494C65.8768 17.1535 66.9814 17.6032 68.1318 17.5997L68.7627 17.5978L68.7744 14.9196Z" fill="#FFD836"/>
<path d="M63.7124 16.538L66.5711 16.5293L66.5797 19.3638L63.7124 16.538Z" fill="#FFD836"/>
<path d="M59.3086 27.1858C59.8451 28.3134 60.7992 29.1926 61.9725 29.6408C63.1459 30.089 64.4483 30.0719 65.6092 29.5927C66.7701 29.1136 67.7003 28.2094 68.2064 27.0681C68.7125 25.9267 68.7557 24.6359 68.327 23.4638L59.3086 27.1858Z" fill="#FF9A15"/>
<path d="M54.4805 21.3358L56.7154 23.6358C57.0087 23.9212 57.2422 24.2614 57.4023 24.6366C57.5626 25.012 57.6463 25.4149 57.6486 25.8224L59.2456 25.8176L59.2422 24.7034C59.2384 24.0807 59.0266 23.4769 58.6398 22.9864C58.2531 22.4958 57.7132 22.1464 57.1047 21.9926L54.4805 21.3358Z" fill="#FFD836"/>
<path d="M58.6914 25.1547L58.5145 25.331C58.442 25.4005 58.3504 25.4472 58.2511 25.4653C58.1519 25.4833 58.0495 25.4721 57.9568 25.4327C57.864 25.3933 57.7851 25.3276 57.7298 25.244C57.6746 25.1603 57.6453 25.0623 57.646 24.9622L57.6304 19.821L58.6784 20.854C59.2485 21.4262 59.5693 22.1972 59.5717 23.0016C59.5742 23.8059 59.2581 24.5791 58.6914 25.1547Z" fill="#FFD836"/>
<path d="M68.9997 17.5972C69.2502 17.5964 69.4525 17.3945 69.4518 17.1462C69.451 16.8979 69.2474 16.6972 68.9969 16.698C68.7465 16.6987 68.5441 16.9006 68.5448 17.149C68.5456 17.3973 68.7492 17.598 68.9997 17.5972Z" fill="#202225"/>
</g>
<g clip-path="url(#clip3_302_707)">
<rect x="30.9233" y="7.05994" width="29.1892" height="29.1892" rx="14.5946" transform="rotate(-0.173721 30.9233 7.05994)" fill="#FF78B9"/>
<path d="M54.7228 41.2958C55.7084 39.213 53.0384 35.8829 48.7588 33.8576C44.4794 31.8322 40.2111 31.8788 39.2255 33.9616C38.2398 36.0442 40.9099 39.3745 45.1895 41.3998C49.4688 43.425 53.7371 43.3784 54.7228 41.2958Z" fill="black"/>
<path d="M55.2417 29.7781C53.9731 28.9932 53.9109 29.0142 53.2013 27.7502C52.4918 26.4861 51.5974 25.8661 50.5591 25.724L51.8742 35.0398C54.575 35.8204 56.2314 34.4454 56.6009 33.0951C56.9704 31.7448 56.531 30.563 55.2417 29.7781Z" fill="#3442D9"/>
<path d="M53.9791 31.0065C53.6217 29.4924 52.6823 27.7309 51.5781 26.4058C51.1825 25.9271 50.9012 25.3644 50.7555 24.7606C50.6099 24.1568 50.6036 23.5278 50.7373 22.9212L51.1877 20.8442C51.5044 19.4025 51.3286 17.8964 50.6888 16.5664C50.0487 15.2363 48.9815 14.1592 47.6575 13.5069C46.8977 13.1357 46.0713 12.9195 45.227 12.8708C43.6382 12.7593 42.0684 13.2713 40.8508 14.298C39.6332 15.3248 38.8636 16.7856 38.7053 18.3704C38.6716 18.6389 38.6586 18.9096 38.6662 19.1801L38.6689 20.0726L38.7218 23.8087C38.7719 25.4871 38.4212 27.1531 37.6987 28.6689C37.3987 29.2703 37.1708 29.9051 37.0194 30.5598L47.2022 41.3225C52.036 40.4983 55.0523 35.8189 53.9791 31.0065Z" fill="#3442D9"/>
<path d="M47.2232 41.3224C52.0363 40.4983 55.0526 35.8189 53.9794 31.0065C53.643 29.5753 52.7869 27.9174 51.7659 26.6336" stroke="black" stroke-miterlimit="10" stroke-linecap="round"/>
<path d="M50.7423 31.3278C51.6924 29.7474 52.0666 29.9538 53.77 30.4053C55.141 30.754 56.727 33.5514 54.6349 34.9692C52.5428 36.387 48.2643 35.5489 50.7423 31.3278Z" fill="#3442D9"/>
<path d="M45.9963 26.6899C46.1873 26.543 46.2171 26.2621 46.0633 26.062C45.9095 25.8622 45.6302 25.8192 45.4395 25.966C45.2488 26.1129 45.2187 26.3938 45.3725 26.5936C45.5263 26.7937 45.8056 26.8366 45.9963 26.6899Z" fill="black"/>
<path d="M48.6113 26.8442C48.802 26.6975 48.8321 26.4164 48.6783 26.2165C48.5245 26.0167 48.2452 25.9735 48.0543 26.1205C47.8635 26.2672 47.8334 26.5483 47.9872 26.7481C48.141 26.948 48.4203 26.9911 48.6113 26.8442Z" fill="black"/>
<path d="M48.3403 26.5194C50.5668 28.3393 49.6575 29.6497 51.4508 32.3427" stroke="white" stroke-miterlimit="10" stroke-linecap="round"/>
<path d="M45.8416 30.6161C47.2086 29.6571 47.6229 29.386 48.1419 29.4052L49.4915 29.5257L49.1552 35.0065L45.7301 34.9131L45.8416 30.6161Z" fill="#FFC619"/>
<path d="M52.4792 29.2052C52.505 29.1327 52.5132 29.055 52.5039 28.9787C52.4945 28.9023 52.4675 28.8291 52.4252 28.7649C52.3826 28.7007 52.326 28.6471 52.2595 28.6085C52.1927 28.5699 52.1182 28.5473 52.0413 28.5423L49.7571 28.2171C49.5914 28.2 49.4246 28.2403 49.2852 28.3315C49.1456 28.4226 49.0416 28.5589 48.9906 28.7176L47.7182 33.4955C47.6927 33.5683 47.6842 33.6457 47.6935 33.7221C47.7029 33.7984 47.7299 33.8716 47.7722 33.9358C47.8148 34.0001 47.8714 34.0537 47.9381 34.0923C48.0047 34.1309 48.0793 34.1535 48.1561 34.1584L50.4403 34.4836C50.6062 34.5008 50.7728 34.4604 50.9124 34.3693C51.0518 34.2781 51.1558 34.1419 51.2068 33.9831L52.4792 29.2052Z" fill="black"/>
<path d="M52.3744 28.7282L52.6243 29.018L51.9395 29.0824L52.3744 28.7282Z" fill="black"/>
<path d="M53.5045 31.8797C53.2124 31.4031 52.9408 30.802 52.1516 30.6799L52.0509 31.6765L53.5045 31.8797Z" fill="#FFC619"/>
<path d="M52.7084 29.4745C52.7299 29.402 52.7353 29.3256 52.7241 29.2507C52.7129 29.1758 52.6855 29.1042 52.6437 29.041C52.602 28.9779 52.5471 28.9247 52.4826 28.885C52.4181 28.8454 52.3456 28.8203 52.2705 28.8116L49.9655 28.4864C49.8004 28.473 49.6353 28.5151 49.4967 28.6056C49.3579 28.6963 49.2531 28.8303 49.199 28.9869L47.9265 33.7649C47.905 33.8374 47.8996 33.9138 47.9108 33.9887C47.9221 34.0636 47.9495 34.1351 47.9912 34.1983C48.0329 34.2615 48.0878 34.3149 48.1523 34.3543C48.217 34.394 48.2893 34.4191 48.3644 34.4278L50.6694 34.7321C50.8309 34.7582 50.9965 34.7235 51.134 34.635C51.2716 34.5464 51.3719 34.4103 51.4152 34.2525L52.7084 29.4745Z" fill="white"/>
<path d="M52.0085 31.3654L52.9429 31.5079C53.1323 31.5283 53.3059 31.6222 53.4267 31.7692C53.5476 31.9164 53.6057 32.1051 53.5888 32.2947C53.5843 32.3933 53.5593 32.4899 53.5153 32.5782C53.4712 32.6664 53.4092 32.7446 53.3332 32.8073C53.257 32.8702 53.1687 32.9164 53.0735 32.9428C52.9785 32.9695 52.8789 32.9758 52.7813 32.9613L52.096 32.8596C51.8832 32.8298 51.6861 32.7303 51.5353 32.577C51.3848 32.4234 51.2891 32.2246 51.2632 32.0111C51.2577 31.9161 51.2742 31.821 51.3113 31.7332C51.3484 31.6455 51.4052 31.5675 51.4771 31.505C51.5491 31.4428 51.6345 31.3977 51.7266 31.3735C51.8187 31.3494 51.9152 31.3466 52.0085 31.3654Z" fill="#FFC619"/>
<path d="M51.7014 32.7569L52.3451 32.8587C52.4529 32.8721 52.5564 32.9085 52.6485 32.9658C52.7406 33.023 52.8191 33.0997 52.8786 33.1903C52.9382 33.281 52.9773 33.3836 52.9932 33.4909C53.0091 33.5982 53.0013 33.7076 52.9707 33.8117C52.927 33.9791 52.8216 34.1239 52.6755 34.2167C52.5295 34.3095 52.3538 34.3437 52.1835 34.3122L51.7889 34.2511C51.5736 34.2221 51.3736 34.1235 51.2195 33.9704C51.0655 33.8172 50.9657 33.6178 50.9353 33.4027C50.929 33.3054 50.9457 33.2082 50.9839 33.1184C51.0222 33.0288 51.0809 32.9493 51.1554 32.8864C51.23 32.8237 51.3181 32.7792 51.413 32.7567C51.5078 32.7342 51.6066 32.7344 51.7014 32.7569Z" fill="#FFC619"/>
<path d="M49.6951 35.1293L47.4525 34.8248L47.5535 33.9112L49.7962 34.2365L49.6951 35.1293Z" fill="#FFC619"/>
<path d="M50.2237 31.4954L48.8116 31.2921C48.7444 31.2831 48.6812 31.2549 48.6294 31.211C48.5777 31.167 48.5398 31.109 48.5203 31.0439L48.3946 30.6706L48.2885 29.9029L47.5287 32.6036L49.8129 32.9288C50.0256 32.9566 50.2413 32.912 50.4255 32.8022C50.6097 32.6925 50.7516 32.5241 50.8282 32.3238C50.8526 32.2289 50.8556 32.1296 50.8373 32.0334C50.8187 31.9371 50.7792 31.8461 50.7215 31.767C50.6637 31.6877 50.589 31.6223 50.5031 31.5755C50.4171 31.5284 50.3217 31.5011 50.2237 31.4954Z" fill="#FFC619"/>
<path d="M49.7715 32.9082L47.5288 32.6036L47.6371 34.0978L49.3607 34.3417C49.571 34.3724 49.7853 34.3285 49.9668 34.2182C50.1483 34.1078 50.2856 33.9374 50.3552 33.7367C50.3833 33.6432 50.3899 33.5446 50.3744 33.4481C50.3588 33.3516 50.3213 33.2602 50.2653 33.1803C50.209 33.1005 50.1353 33.0345 50.0496 32.9873C49.9642 32.9402 49.869 32.9131 49.7715 32.9082Z" fill="#FFC619"/>
<path d="M65.699 42.0136C65.7545 39.7717 63.9061 39.4245 62.6375 38.6396C61.369 37.8546 59.8695 36.1986 58.3093 35.0825C56.7492 33.9664 55.4001 33.9912 52.7664 34.8087L55.7939 40.653C57.4986 41.5196 57.8751 42.4733 58.7923 43.7574C59.7095 45.0415 60.9356 45.536 62.1596 45.304C62.8062 46.3606 62.9315 46.6093 63.8646 46.2744C64.7976 45.9394 66.3315 45.229 66.7429 44.0031C67.1543 42.7772 66.5517 42.5715 65.699 42.0136Z" fill="#66BCFF"/>
<path d="M55.6588 37.2077C55.3825 38.0996 55.2045 39.0189 55.1274 39.9492" stroke="black" stroke-width="2" stroke-miterlimit="10" stroke-linecap="round"/>
<path d="M56.9162 47.9975C55.0325 49.7052 53.4328 49.2327 52.6853 49.1519C51.9378 49.0712 52.0192 48.5312 51.9556 48.0748C51.8919 47.6183 51.8483 46.9335 51.8483 46.9335C49.9591 46.8147 49.7269 45.5284 49.6819 44.387C49.6369 43.2455 49.3458 43.0803 49.1981 42.2712C46.9194 41.869 44.7641 40.9477 42.8989 39.5782C41.0337 38.209 39.5091 36.4283 38.4428 34.3747L40.4104 32.9365L44.8195 35.7876C47.7843 34.6785 49.4224 34.1131 51.0203 34.0045C52.6183 33.8958 54.1976 34.493 54.7233 36.7124C55.2489 38.9318 55.3133 39.6166 55.7939 40.6737C55.9193 40.9432 56.1279 41.3162 56.3367 41.7099C56.9215 42.8913 57.5285 44.55 56.3508 46.3594C56.4968 46.9192 56.6859 47.467 56.9162 47.9975Z" fill="#8CD9FF"/>
<path d="M41.6726 38.5577C41.6059 37.0842 42.1632 36.0446 43.1798 35.8755L40.6005 34.0982L38.7349 34.9134C39.2163 36.2404 40.4454 37.6896 41.6726 38.5577Z" fill="black"/>
<path d="M45.8823 30.3254C45.2788 29.8083 44.8222 29.8512 44.0967 30.1647C43.3266 29.4613 42.3299 29.3606 41.2932 29.7166C40.2564 30.0726 38.6596 30.5548 37.7263 30.8068C37.6742 30.8264 37.6176 30.8305 37.5632 30.8189C37.5088 30.807 37.4589 30.78 37.4193 30.7408C37.38 30.7015 37.3526 30.6518 37.3406 30.5974C37.3284 30.5431 37.3324 30.4864 37.3515 30.4343L38.029 27.9414C35.813 29.6087 35.0973 33.1602 35.8089 35.0885C36.5205 37.0167 39.5924 36.9866 40.5663 36.444C41.5402 35.9014 41.8718 35.7343 42.9933 35.9385C44.1148 36.1427 44.987 36.2853 46.4574 35.16L47.3283 34.8667C47.6546 32.9769 47.3599 31.6078 45.8823 30.3254Z" fill="#3442D9"/>
<path d="M45.882 30.3253C45.2785 29.8082 44.822 29.8511 44.0964 30.1647C43.3263 29.4613 42.3297 29.3605 41.2929 29.7165C40.2561 30.0725 38.6593 30.5548 37.726 30.8067" stroke="black" stroke-miterlimit="10" stroke-linecap="round"/>
<path d="M44.0967 30.1648C44.7181 30.643 45.2362 31.2422 45.62 31.9258C46.0038 32.6096 46.2452 33.364 46.3297 34.1433" stroke="black" stroke-miterlimit="10" stroke-linecap="round"/>
<path d="M50.3837 29.5231C50.3929 29.4944 50.396 29.4641 50.3923 29.434C50.3887 29.4041 50.3787 29.3753 50.3626 29.3498C50.3468 29.3241 50.3255 29.3022 50.3004 29.2856C50.2752 29.2691 50.2467 29.2582 50.2168 29.2537L50.0093 29.2543C49.9515 29.2419 49.8911 29.2524 49.841 29.2835C49.7907 29.3146 49.7545 29.3639 49.7399 29.4212L49.5552 30.1068C49.5457 30.1371 49.5433 30.1691 49.5482 30.2004C49.5531 30.2317 49.565 30.2614 49.5829 30.2875C49.6011 30.3134 49.625 30.3349 49.6527 30.3504C49.6803 30.3656 49.7113 30.3745 49.7428 30.376L49.9504 30.3754C50.005 30.3823 50.0602 30.369 50.106 30.3384C50.1515 30.3077 50.1846 30.2618 50.199 30.2086L50.3837 29.5231Z" fill="#29CC7A"/>
<path d="M47.0505 25.5478C47.21 25.2224 47.446 24.9407 47.738 24.7266C48.0302 24.5124 48.37 24.3722 48.7281 24.3181C48.7696 24.3179 48.7903 24.2763 48.7695 24.2557C48.4966 23.2602 48.6194 22.6993 48.9701 21.9718C48.9736 21.9665 48.9759 21.9605 48.9767 21.9542C48.9775 21.9479 48.9769 21.9416 48.975 21.9356C48.9729 21.9295 48.9695 21.9241 48.965 21.9196C48.9606 21.9151 48.9552 21.9117 48.9492 21.9096C47.7853 21.415 47.3469 20.586 47.2204 19.9637C47.1996 19.9222 47.1372 19.9017 47.1166 19.9432C46.6008 20.9826 45.8952 21.0263 45.293 20.9451C45.2515 20.9452 45.2309 20.9868 45.2517 21.0075C45.8572 22.168 45.4238 22.9996 44.8236 23.5826C44.8205 23.5908 44.8189 23.5995 44.8193 23.6083C44.8198 23.617 44.8221 23.6256 44.826 23.6334C44.83 23.6413 44.8354 23.6482 44.8423 23.6537C44.849 23.6592 44.8569 23.6633 44.8654 23.6655C46.0284 23.8696 46.6534 24.6357 46.9467 25.5273C46.9676 25.5688 47.0299 25.5893 47.0505 25.5478Z" fill="#FFC619"/>
<path d="M49.7715 32.9082L48.5879 32.7457" stroke="black" stroke-miterlimit="10" stroke-linecap="round"/>
<path d="M51.9297 32.8394L52.5942 32.9411" stroke="black" stroke-miterlimit="10" stroke-linecap="round"/>
<path d="M47.1788 19.9223C47.6941 18.7584 47.6502 17.949 47.5035 17.4928" stroke="black" stroke-miterlimit="10" stroke-linecap="round"/>
<path d="M48.8458 21.9514C49.1698 22.0001 49.5006 21.9784 49.8154 21.8879C50.1304 21.7974 50.4222 21.6402 50.6708 21.427" stroke="black" stroke-miterlimit="10" stroke-linecap="round"/>
<path d="M47.0505 25.5478C47.0527 25.7022 47.0322 25.8563 46.9897 26.0046" stroke="black" stroke-miterlimit="10" stroke-linecap="round"/>
<path d="M44.9274 23.6031C44.161 24.1451 42.9984 24.0656 42.1881 23.819" stroke="black" stroke-miterlimit="10" stroke-linecap="round"/>
<path d="M45.293 20.945C45.0006 20.344 44.4588 19.6607 43.96 19.4338" stroke="black" stroke-miterlimit="10" stroke-linecap="round"/>
<path d="M48.7695 24.2555C49.0377 24.3976 49.3245 24.5015 49.6215 24.5643" stroke="black" stroke-miterlimit="10" stroke-linecap="round"/>
<path d="M46.5419 22.0415C46.8989 23.4104 47.3553 23.326 47.5616 22.9102C47.7679 22.4944 47.9117 21.9751 48.2439 22.0156C48.5761 22.0561 48.4949 22.6375 48.103 23.469C47.7111 24.3005 47.0682 24.4892 46.4641 23.7646C45.86 23.0399 45.8371 22.3342 45.8148 21.8361C45.7925 21.3381 46.3111 21.2119 46.5419 22.0415Z" fill="#C40655"/>
<path d="M45.7245 26.3613C45.9823 29.225 44.5335 30.5993 44.0854 33.4444" stroke="white" stroke-miterlimit="10" stroke-linecap="round"/>
<path d="M49.0316 42.2925C48.6543 41.069 48.4814 38.8277 49.4925 36.8528" stroke="black" stroke-width="2" stroke-miterlimit="10" stroke-linecap="round"/>
<path d="M38.535 30.576L37.0005 31.0788" stroke="black" stroke-miterlimit="10" stroke-linecap="round"/>
<path d="M53.7905 30.3429L54.8292 30.6303" stroke="black" stroke-miterlimit="10" stroke-linecap="round"/>
</g>
<g clip-path="url(#clip4_302_707)">
<rect x="10.0044" y="7.12341" width="29.1892" height="29.1892" rx="14.5946" transform="rotate(-0.173721 10.0044 7.12341)" fill="url(#paint0_linear_302_707)"/>
<path d="M36.5185 18.7086C38.0293 12.891 38.7606 11.8577 42.2966 19.346L36.5185 18.7086Z" fill="#D4E1FF"/>
<path d="M22.0855 31.1716L21.9468 31.2918C24.0566 33.2694 27.2686 38.3576 32.1302 38.0857C32.1302 38.0857 36.0822 45.2552 40.3082 44.4493C44.5342 43.6426 47.6517 37.681 47.6517 37.681C48.7904 35.6233 49.5945 33.3974 50.0335 31.0869C49.9725 30.5519 49.7727 30.1355 49.3951 29.8787C46.3716 27.8845 24.284 29.5586 22.0855 31.1716Z" fill="#1C1B29"/>
<path d="M28.4524 16.4316L32.8821 17.6082C34.1974 17.0412 35.6162 16.7534 37.0485 16.7631C43.7968 16.7426 47.4062 22.2073 47.4266 28.9323C47.447 35.6582 43.8708 41.1446 37.1225 41.165C30.3733 41.1855 26.784 35.7208 26.7636 28.995C26.7566 28.0046 26.8332 27.0154 26.9925 26.0379C27.442 23.4571 27.3126 20.8073 26.6114 18.2822C26.5432 18.0269 26.5432 17.7582 26.6113 17.5029C26.6794 17.2476 26.8134 17.0147 26.9997 16.8274C27.1861 16.6401 27.4183 16.5049 27.6732 16.4355C27.9281 16.366 28.1968 16.3647 28.4524 16.4316Z" fill="#B3CAFF"/>
<path d="M47.1978 31.85C43.9269 33.308 40.5481 31.7898 37.2872 29.9354C33.7276 27.9027 31.429 22.7314 30.4516 21.0879C29.4743 19.4435 28.0832 19.1311 27.1237 16.7338C26.897 16.9141 26.728 17.1567 26.6372 17.4317C26.5463 17.7068 26.5378 18.0023 26.6125 18.2822C27.3131 20.8075 27.443 23.457 26.9928 26.0388C26.8335 27.016 26.7569 28.0049 26.7639 28.995C26.7843 35.7209 30.3936 41.1855 37.1227 41.1651C42.8594 41.1477 46.3011 37.1692 47.1978 31.8492L47.1978 31.85Z" fill="#8DAEF7"/>
<path d="M46.5962 29.847C46.6121 35.0846 43.5088 39.3401 39.6774 39.3517C35.8467 39.3634 32.7369 35.1267 32.721 29.889C32.6948 21.2394 38.0954 28.3058 41.9268 28.2942C45.7574 28.2826 46.6726 22.4273 46.5962 29.847Z" fill="#FCFDFF"/>
<path d="M39.7788 34.9181C40.1507 34.8856 40.4079 34.3641 40.3554 33.7528C40.3021 33.1414 39.9576 32.6724 39.5864 32.704C39.2153 32.7373 38.9573 33.2588 39.0106 33.8693C39.0639 34.4807 39.4076 34.9506 39.7788 34.9181ZM44.3359 33.891C44.445 33.2872 44.236 32.7438 43.8686 32.6782C43.502 32.6118 43.116 33.0477 43.0069 33.6515C42.8986 34.2545 43.1076 34.7979 43.4742 34.8643C43.8409 34.9307 44.2269 34.4948 44.3359 33.891Z" fill="#1C1B29"/>
<path d="M59.8547 94.9196C57.0376 95.5236 48.5774 87.5143 48.5774 87.5143C50.9218 94.8077 51.3254 96.989 51.7281 98.8721C52.1308 100.756 51.8932 101.134 51.739 102.463C51.5839 103.793 51.5838 103.753 52.3827 105.418C53.1817 107.081 53.702 108.25 53.8629 109.103C53.9238 109.599 53.9053 110.101 53.8079 110.591L18.3368 110.698C18.3368 110.698 18.1552 109.906 18.9031 107.701C19.651 105.497 21.3723 103.667 22.3203 102.274C23.2691 100.883 23.2101 101.022 22.9504 100.448C21.751 97.6339 23.6782 98.2436 24.4794 94.0152C25.2798 89.7867 25.4774 69.6293 27.2581 61.3912C29.0395 53.1524 31.7931 51.1994 31.9709 44.3942C28.6065 41.2705 20.2649 33.1411 21.9468 31.291C23.8575 33.0707 29.5767 33.9269 34.2413 33.8733C34.6505 33.8662 35.0514 33.9883 35.3872 34.2224C35.7229 34.4564 35.9762 34.7903 36.1111 35.1767C36.9123 37.5745 38.9316 42.3103 42.0862 41.6852C45.2407 41.0609 47.5652 35.4192 48.2147 33.3737C48.3516 32.9272 48.6375 32.5412 49.0246 32.28C49.4471 31.9643 49.7921 31.5565 50.0335 31.0877C50.4825 34.9941 44.0227 45.3694 44.0227 45.3694C44.0227 45.3694 45.6732 59.4108 48.9031 64.0232C52.1322 68.6364 61.1643 68.609 61.3954 73.0127C61.6274 77.4156 62.6517 94.3157 59.8547 94.9196Z" fill="#BD4070"/>
<path d="M32.4005 35.5448C30.0577 35.4128 26.9009 35.0254 21.8315 32.5216C22.6537 35.4747 29.1246 41.7245 31.9709 44.3942C31.9345 46.505 31.5588 48.5961 30.8582 50.5875C33.4294 54.2103 36.5192 51.84 37.1062 62.0356C37.3572 66.3798 40.5705 72.1429 43.9243 78.3822C47.278 84.6214 47.6996 73.133 47.5434 67.4795C47.4546 64.4045 46.8283 60.5975 46.1616 56.9689C44.7363 51.4776 44.0226 45.3694 44.0226 45.3694C44.0226 45.3694 48.5464 38.0946 49.7626 33.4486C49.453 33.6424 49.2112 33.9276 49.0708 34.2639C47.8478 37.0438 46.4778 39.7566 44.9667 42.3909C43.4061 45.0346 40.4923 46.3524 37.1217 41.1651C33.7518 35.977 34.9218 35.6962 32.4005 35.5448Z" fill="#A12C66"/>
<path d="M33.8401 25.8195C37.3391 27.4948 38.5566 29.6342 41.3551 29.5462C44.1537 29.4582 45.2409 28.1057 46.3668 26.2974C45.9074 25.3064 44.6661 28.2858 41.9267 28.2941C39.1873 28.3024 35.6035 24.6434 33.8401 25.8195Z" fill="#8DAEF7"/>
</g>
<path d="M126.455 25.4506L126.449 23.1946L124.097 23.2017L124.093 21.8417L126.445 21.8346L126.437 19.4986L127.829 19.4944L127.837 21.8304L130.189 21.8232L130.193 23.1832L127.841 23.1903L127.847 25.4463L126.455 25.4506Z" fill="#263238"/>
<path d="M137.348 26.9405C137.347 26.5138 137.378 26.1137 137.441 25.7402C137.514 25.3666 137.641 25.0089 137.821 24.667C138.012 24.3251 138.278 23.999 138.618 23.6886C138.959 23.3676 139.4 23.0569 139.944 22.7566C140.263 22.5743 140.582 22.4027 140.902 22.2417C141.232 22.0807 141.536 21.9091 141.812 21.7269C142.1 21.5447 142.329 21.3467 142.499 21.1328C142.669 20.9083 142.753 20.6521 142.752 20.3641C142.752 20.1187 142.676 19.8843 142.526 19.6608C142.387 19.4265 142.173 19.2405 141.884 19.1027C141.607 18.9542 141.26 18.8806 140.844 18.8819C140.524 18.8828 140.231 18.9264 139.964 19.0125C139.708 19.0986 139.474 19.2113 139.261 19.3507C139.059 19.4793 138.878 19.6185 138.718 19.7683C138.57 19.9074 138.442 20.0358 138.336 20.1535L137.453 19.1641C137.538 19.0679 137.681 18.9394 137.883 18.7788C138.086 18.6075 138.341 18.4361 138.65 18.2645C138.959 18.0929 139.316 17.9478 139.721 17.8293C140.136 17.7 140.589 17.6346 141.08 17.6331C141.741 17.6311 142.307 17.7467 142.777 17.98C143.258 18.2025 143.627 18.5107 143.884 18.9046C144.141 19.2879 144.27 19.7195 144.272 20.1995C144.273 20.6155 144.184 20.9784 144.003 21.2883C143.833 21.5981 143.61 21.8708 143.334 22.1063C143.068 22.3418 142.786 22.5453 142.487 22.7169C142.2 22.8778 141.939 23.0172 141.705 23.1353C141.225 23.3714 140.815 23.586 140.475 23.779C140.134 23.972 139.852 24.1649 139.628 24.3576C139.416 24.5395 139.24 24.7321 139.102 24.9352C138.975 25.1382 138.879 25.3785 138.816 25.656L144.464 25.6389L144.468 26.9189L137.348 26.9405ZM150.939 23.1233C151.398 23.1965 151.793 23.366 152.125 23.6317C152.456 23.8867 152.713 24.2166 152.896 24.6213C153.078 25.0155 153.17 25.4632 153.172 25.9645C153.174 26.6152 153.016 27.1863 152.697 27.678C152.389 28.1802 151.948 28.5656 151.373 28.834C150.797 29.1131 150.126 29.2538 149.358 29.2561C148.547 29.2585 147.832 29.106 147.212 28.7986C146.603 28.5018 146.128 28.0765 145.785 27.5229L146.726 26.5761C146.972 27.002 147.304 27.3423 147.721 27.597C148.148 27.8517 148.693 27.9781 149.354 27.9761C150.09 27.9739 150.665 27.8014 151.08 27.4589C151.506 27.1269 151.718 26.6303 151.716 25.9689C151.714 25.2969 151.483 24.7643 151.023 24.371C150.574 23.967 149.917 23.7664 149.053 23.769L148.637 23.7702L148.634 22.5863L149.082 22.5849C149.85 22.5826 150.436 22.3941 150.84 22.0196C151.255 21.645 151.461 21.1803 151.46 20.6257C151.458 20.2417 151.367 19.9273 151.185 19.6825C151.003 19.4377 150.757 19.2571 150.447 19.1407C150.137 19.0137 149.78 18.9508 149.375 18.952C148.788 18.9538 148.271 19.0833 147.824 19.3407C147.387 19.5873 147.047 19.935 146.803 20.3838L145.936 19.4904C146.127 19.1272 146.398 18.8117 146.749 18.5439C147.111 18.2762 147.527 18.0669 147.995 17.9162C148.475 17.7654 148.981 17.6892 149.515 17.6876C150.187 17.6855 150.779 17.8011 151.292 18.0342C151.815 18.2673 152.221 18.5967 152.511 19.0225C152.8 19.4483 152.946 19.9492 152.947 20.5252C152.949 20.9412 152.87 21.3361 152.711 21.7099C152.552 22.073 152.318 22.3831 152.01 22.64C151.712 22.8863 151.355 23.0473 150.939 23.1233ZM159.389 28.9057L159.381 26.2017L154.245 26.2173L154.241 24.9693L159.804 17.7364L160.764 17.7334L160.785 24.9174L162.193 24.9131L162.197 26.1931L160.789 26.1974L160.797 28.9014L159.389 28.9057ZM155.697 24.9328L159.521 24.9212L159.506 19.9133L155.697 24.9328Z" fill="#263238"/>
<path d="M169.125 25.9842C168.519 25.986 167.949 25.8897 167.416 25.6954C166.884 25.4916 166.426 25.1897 166.042 24.7895L166.515 23.9201C166.936 24.3108 167.357 24.5895 167.778 24.7563C168.198 24.923 168.628 25.0057 169.066 25.0043C169.57 25.0028 169.981 24.9082 170.298 24.7206C170.614 24.5237 170.772 24.2385 170.771 23.8652C170.77 23.5945 170.686 23.3941 170.517 23.2639C170.358 23.1338 170.129 23.0271 169.83 22.944C169.531 22.8516 169.176 22.75 168.765 22.6392C168.261 22.4914 167.836 22.3341 167.49 22.1671C167.144 22.0002 166.882 21.791 166.704 21.5395C166.526 21.288 166.436 20.971 166.435 20.5883C166.434 20.1216 166.554 19.7293 166.795 19.4112C167.037 19.0838 167.368 18.8355 167.787 18.6662C168.216 18.4969 168.701 18.4114 169.242 18.4098C169.784 18.4081 170.274 18.4907 170.713 18.6573C171.152 18.824 171.531 19.0702 171.849 19.3959L171.292 20.2516C171.002 19.9538 170.684 19.7354 170.338 19.5965C169.992 19.4482 169.605 19.3747 169.175 19.376C168.923 19.3768 168.676 19.4102 168.434 19.4762C168.191 19.533 167.991 19.6409 167.833 19.8001C167.674 19.9499 167.596 20.1648 167.597 20.4448C167.597 20.6781 167.659 20.8646 167.78 21.0042C167.911 21.1345 168.098 21.2459 168.341 21.3385C168.594 21.4311 168.897 21.5328 169.252 21.6438C169.803 21.8008 170.28 21.958 170.682 22.1154C171.093 22.2729 171.411 22.4772 171.636 22.7285C171.86 22.9799 171.973 23.3295 171.975 23.7775C171.977 24.4682 171.717 25.0103 171.196 25.4039C170.674 25.7881 169.984 25.9816 169.125 25.9842ZM177.234 25.4556C177.131 25.5026 176.991 25.5637 176.814 25.6389C176.637 25.7141 176.432 25.78 176.199 25.8367C175.966 25.8934 175.718 25.9222 175.457 25.923C175.158 25.9239 174.883 25.8734 174.631 25.7715C174.378 25.6602 174.177 25.4929 174.027 25.2693C173.877 25.0364 173.802 24.7473 173.801 24.402L173.786 19.488L172.792 19.491L172.789 18.525L173.783 18.522L173.775 16.086L175.007 16.0823L175.015 18.5183L176.653 18.5133L176.656 19.4793L175.018 19.4843L175.031 24.0203C175.051 24.2815 175.14 24.4773 175.299 24.6074C175.458 24.7283 175.645 24.7884 175.86 24.7877C176.102 24.787 176.326 24.7443 176.531 24.6597C176.736 24.5751 176.872 24.514 176.937 24.4765L177.234 25.4556ZM178.298 22.8903L178.285 18.5084L179.517 18.5046L179.529 22.6486C179.531 23.3953 179.664 23.9549 179.926 24.3274C180.189 24.7 180.577 24.8854 181.09 24.8839C181.426 24.8829 181.748 24.8119 182.055 24.671C182.372 24.5207 182.656 24.3098 182.907 24.0384C183.159 23.7669 183.354 23.4444 183.492 23.0706L183.479 18.4926L184.711 18.4889L184.728 24.3969C184.729 24.5462 184.757 24.6581 184.813 24.7326C184.879 24.7977 184.982 24.8348 185.122 24.8437L185.125 25.7957C184.985 25.8148 184.873 25.8244 184.789 25.8247C184.714 25.8342 184.639 25.8391 184.565 25.8394C184.331 25.8401 184.131 25.7707 183.962 25.6312C183.794 25.4824 183.705 25.3006 183.695 25.086L183.664 24.2321C183.348 24.7744 182.92 25.1957 182.38 25.496C181.849 25.7963 181.266 25.9474 180.631 25.9493C179.866 25.9516 179.286 25.6967 178.893 25.1846C178.499 24.6631 178.301 23.8983 178.298 22.8903ZM186.298 22.1521C186.296 21.4614 186.434 20.831 186.712 20.2608C187 19.6813 187.39 19.2181 187.884 18.8713C188.387 18.5244 188.96 18.35 189.604 18.348C190.192 18.3463 190.72 18.4987 191.188 18.8052C191.655 19.1118 192.02 19.4841 192.283 19.9219L192.27 15.554L193.502 15.5502L193.529 24.3702C193.529 24.5195 193.557 24.6314 193.614 24.7059C193.679 24.7711 193.782 24.8081 193.922 24.817L193.925 25.769C193.692 25.807 193.51 25.8262 193.379 25.8266C193.136 25.8274 192.921 25.744 192.734 25.5766C192.556 25.4091 192.467 25.2227 192.467 25.0174L192.465 24.4014C192.177 24.8689 191.791 25.2388 191.306 25.5109C190.822 25.7831 190.318 25.9199 189.795 25.9215C189.291 25.923 188.824 25.8264 188.394 25.6317C187.974 25.4277 187.604 25.1488 187.286 24.7951C186.977 24.4414 186.733 24.0408 186.554 23.5933C186.385 23.1365 186.299 22.6561 186.298 22.1521ZM192.293 23.2119L192.287 21.1119C192.174 20.7949 191.991 20.5108 191.738 20.2596C191.485 19.999 191.2 19.7945 190.882 19.6462C190.574 19.4884 190.266 19.41 189.958 19.411C189.594 19.4121 189.262 19.4924 188.964 19.652C188.675 19.8022 188.424 20.0083 188.21 20.2703C188.006 20.5229 187.848 20.8127 187.737 21.1397C187.626 21.4667 187.571 21.8076 187.572 22.1622C187.573 22.5262 187.635 22.8714 187.757 23.1977C187.889 23.5239 188.067 23.8127 188.292 24.0641C188.526 24.3153 188.792 24.5105 189.091 24.6496C189.4 24.7887 189.731 24.8577 190.086 24.8566C190.31 24.8559 190.539 24.8132 190.772 24.7285C191.014 24.6438 191.242 24.5264 191.457 24.3765C191.671 24.2265 191.852 24.0533 192.001 23.8568C192.15 23.651 192.247 23.4361 192.293 23.2119ZM198.824 25.8941C198.273 25.8958 197.769 25.7993 197.311 25.6047C196.862 25.4007 196.47 25.1266 196.133 24.7823C195.805 24.4286 195.547 24.0234 195.359 23.5666C195.18 23.1098 195.09 22.6248 195.088 22.1114C195.086 21.4208 195.243 20.7903 195.559 20.22C195.874 19.6497 196.312 19.191 196.871 18.844C197.439 18.497 198.087 18.3223 198.815 18.3201C199.552 18.3179 200.192 18.4933 200.735 18.8463C201.286 19.19 201.712 19.646 202.013 20.2144C202.322 20.7735 202.478 21.3797 202.48 22.033C202.481 22.1264 202.476 22.2197 202.467 22.3131C202.467 22.3971 202.463 22.4624 202.454 22.5091L196.392 22.5275C196.43 23.0034 196.562 23.4276 196.788 23.8003C197.022 24.1636 197.322 24.452 197.686 24.6656C198.051 24.8698 198.443 24.9713 198.863 24.97C199.311 24.9686 199.731 24.8554 200.122 24.6302C200.523 24.405 200.797 24.1101 200.945 23.7457L202.01 24.0365C201.853 24.3916 201.616 24.7097 201.299 24.9906C200.992 25.2715 200.624 25.492 200.195 25.652C199.776 25.8119 199.319 25.8926 198.824 25.8941ZM196.347 21.6736L201.331 21.6585C201.292 21.1826 201.156 20.763 200.921 20.3997C200.687 20.0365 200.387 19.7527 200.023 19.5485C199.658 19.3442 199.256 19.2428 198.818 19.2441C198.388 19.2454 197.992 19.3493 197.629 19.5557C197.265 19.7622 196.968 20.0477 196.735 20.4124C196.512 20.7771 196.383 21.1975 196.347 21.6736ZM210.203 25.7196L208.971 25.7234L208.959 21.6354C208.956 20.8607 208.833 20.2964 208.589 19.9425C208.355 19.5792 207.995 19.3983 207.51 19.3998C207.174 19.4008 206.838 19.4858 206.503 19.6548C206.176 19.8238 205.883 20.0534 205.623 20.3435C205.371 20.6242 205.19 20.9515 205.08 21.3251L205.093 25.7351L203.861 25.7389L203.839 18.4309L204.959 18.4275L204.964 19.9955C205.159 19.6496 205.41 19.3501 205.717 19.0972C206.024 18.8443 206.373 18.6472 206.765 18.506C207.157 18.3648 207.567 18.2936 207.996 18.2923C208.416 18.291 208.767 18.3693 209.047 18.5271C209.337 18.6756 209.562 18.8895 209.721 19.1691C209.89 19.4392 210.008 19.7609 210.074 20.134C210.15 20.5071 210.188 20.913 210.19 21.3516L210.203 25.7196ZM215.829 25.3386C215.727 25.3855 215.587 25.4466 215.41 25.5218C215.233 25.597 215.028 25.663 214.794 25.7197C214.561 25.7764 214.314 25.8052 214.053 25.806C213.754 25.8069 213.479 25.7564 213.226 25.6545C212.974 25.5432 212.773 25.3758 212.623 25.1523C212.473 24.9194 212.397 24.6303 212.396 24.285L212.381 19.371L211.387 19.374L211.384 18.408L212.378 18.405L212.371 15.969L213.603 15.9653L213.61 18.4013L215.248 18.3963L215.251 19.3623L213.613 19.3673L213.627 23.9032C213.646 24.1645 213.736 24.3602 213.895 24.4904C214.054 24.6113 214.241 24.6714 214.455 24.6707C214.698 24.67 214.922 24.6273 215.127 24.5427C215.332 24.4581 215.467 24.397 215.532 24.3595L215.829 25.3386ZM219.479 25.8315C218.872 25.8333 218.302 25.7371 217.77 25.5427C217.237 25.339 216.779 25.037 216.395 24.6368L216.868 23.7674C217.29 24.1581 217.71 24.4369 218.131 24.6036C218.551 24.7703 218.981 24.853 219.42 24.8517C219.924 24.8501 220.334 24.7556 220.651 24.5679C220.968 24.371 221.125 24.0858 221.124 23.7125C221.123 23.4418 221.039 23.2414 220.87 23.1113C220.711 22.9811 220.482 22.8744 220.183 22.7914C219.884 22.6989 219.53 22.5973 219.119 22.4866C218.614 22.3388 218.189 22.1814 217.843 22.0144C217.497 21.8475 217.235 21.6383 217.057 21.3868C216.879 21.1354 216.789 20.8183 216.788 20.4356C216.787 19.969 216.907 19.5766 217.149 19.2585C217.39 18.9311 217.721 18.6828 218.14 18.5135C218.569 18.3442 219.054 18.2588 219.596 18.2571C220.137 18.2555 220.627 18.338 221.066 18.5047C221.506 18.6713 221.884 18.9175 222.203 19.2432L221.645 20.0989C221.355 19.8011 221.037 19.5827 220.691 19.4438C220.346 19.2955 219.958 19.222 219.529 19.2233C219.277 19.2241 219.029 19.2575 218.787 19.3236C218.544 19.3803 218.344 19.4882 218.186 19.6474C218.028 19.7972 217.949 20.0121 217.95 20.2921C217.951 20.5254 218.012 20.7119 218.134 20.8516C218.265 20.9818 218.452 21.0933 218.695 21.1859C218.947 21.2784 219.25 21.3802 219.605 21.4911C220.157 21.6481 220.633 21.8053 221.035 21.9628C221.446 22.1202 221.764 22.3246 221.989 22.5759C222.214 22.8272 222.327 23.1769 222.328 23.6249C222.33 24.3155 222.07 24.8576 221.549 25.2512C221.027 25.6355 220.337 25.8289 219.479 25.8315Z" fill="#263238"/>
<defs>
<linearGradient id="paint0_linear_302_707" x1="24.599" y1="36.445" x2="24.599" y2="15.5367" gradientUnits="userSpaceOnUse">
<stop stop-color="#7196FF"/>
<stop offset="1" stop-color="#2A5EE8"/>
</linearGradient>
<clipPath id="clip0_302_707">
<rect x="88.8105" y="5.42505" width="29.1892" height="29.1892" rx="14.5946" transform="rotate(-0.173721 88.8105 5.42505)" fill="white"/>
</clipPath>
<clipPath id="clip1_302_707">
<rect x="73.2432" y="5.47229" width="29.1892" height="29.1892" rx="14.5946" transform="rotate(-0.173721 73.2432 5.47229)" fill="white"/>
</clipPath>
<clipPath id="clip2_302_707">
<rect x="51.8408" y="6.51013" width="29.1892" height="29.1892" rx="14.5946" transform="rotate(-0.173721 51.8408 6.51013)" fill="white"/>
</clipPath>
<clipPath id="clip3_302_707">
<rect x="30.9233" y="7.05994" width="29.1892" height="29.1892" rx="14.5946" transform="rotate(-0.173721 30.9233 7.05994)" fill="white"/>
</clipPath>
<clipPath id="clip4_302_707">
<rect x="10.0044" y="7.12341" width="29.1892" height="29.1892" rx="14.5946" transform="rotate(-0.173721 10.0044 7.12341)" fill="white"/>
</clipPath>
</defs>
</svg>
