<svg width="225" height="42" viewBox="0 0 225 42" fill="none" xmlns="http://www.w3.org/2000/svg">
<rect y="0.336548" width="225.001" height="40.9759" rx="20.4879" fill="#FAFAFA"/>
<g clip-path="url(#clip0_302_680)">
<rect x="88.8105" y="5.42505" width="29.1892" height="29.1892" rx="14.5946" transform="rotate(-0.173721 88.8105 5.42505)" fill="#FFE75C"/>
<path d="M111.305 35.0291C111.41 35.4506 111.418 35.8906 111.328 36.3156C111.238 36.7407 111.052 37.1396 110.785 37.4825C110.518 37.8252 110.177 38.1029 109.787 38.2942C109.397 38.4855 108.969 38.5856 108.534 38.587L102.598 38.605L99.8209 40.1701L99.8206 40.0871C98.5545 40.091 97.8269 39.678 98.3733 35.0268C98.1202 33.7199 96.9422 28.5758 96.2871 24.7378C95.6953 21.2316 96.9991 19.9408 100.605 17.8957C102.127 13.3245 106.113 13.5823 106.889 16.3198C107.665 19.0574 110.233 30.6942 111.305 35.0291Z" fill="#66BCFF"/>
<path d="M111.305 35.029C110.758 32.789 109.791 28.6405 108.887 24.7617L104.236 24.423L100.653 26.9662L98.5859 29.7539L97.5317 31.1893C97.9107 32.9732 98.2263 34.4252 98.3527 35.0476C97.8064 39.6988 98.5341 40.1117 99.8003 40.1078L103.47 38.54L111.978 37.9122C111.768 36.9788 111.536 36.0039 111.305 35.029Z" fill="#EB459F"/>
<path d="M101.785 32.7213C102.042 31.172 101.902 29.8581 101.473 29.7868C101.043 29.7154 100.486 30.9135 100.229 32.463C99.9716 34.0122 100.112 35.3259 100.541 35.3973C100.971 35.4686 101.528 34.2705 101.785 32.7213Z" fill="black"/>
<path d="M99.0604 28.8806C99.2668 28.5064 99.4942 28.1321 99.7215 27.7993C102.057 24.4088 104.254 23.4889 106.371 23.4824L109.007 23.4744C109.047 23.4754 109.085 23.4856 109.12 23.5042C109.154 23.5228 109.184 23.5495 109.206 23.5818C109.229 23.6141 109.243 23.6512 109.249 23.6902C109.254 23.7292 109.25 23.7689 109.237 23.8059L108.887 24.7617C104.839 24.774 103.407 24.6538 100.055 28.1926L98.5858 29.7539L99.0604 28.8806Z" fill="#D11583"/>
<path d="M100.055 28.3173C98.665 28.5706 97.5671 29.3004 96.9483 30.5892C96.7726 30.9467 96.5182 31.2597 96.2039 31.5047L92.4759 34.2352C92.0569 34.5345 91.7656 34.9802 91.6594 35.4841C91.5534 35.988 91.6403 36.5133 91.903 36.9561C92.0862 37.2669 92.3479 37.5239 92.6616 37.7014C92.9756 37.879 93.3306 37.9709 93.6911 37.9677L95.2479 37.963C98.4804 36.1474 99.9712 34.9182 100.737 34.2101C101.503 33.5021 102.35 32.2333 102.2 30.7808C102.051 29.3283 101.632 28.0219 100.055 28.3173Z" fill="white"/>
<path d="M101.185 17.5826C100.684 16.7539 100.017 15.6558 99.7659 15.1376C99.5152 14.6194 98.9137 14.7458 99.7717 17.068C97.6937 16.2855 97.2587 16.5774 97.1558 16.8683C97.0529 17.1592 97.51 17.3032 98.3832 17.7987C99.2565 18.2942 100.192 18.8933 100.192 18.8933L101.185 17.5826Z" fill="#66BCFF"/>
<path d="M103.344 17.6383C103.695 17.2014 103.818 16.7236 103.61 16.5581C103.402 16.3927 103.174 16.4764 102.864 16.8925C102.73 17.0617 102.585 17.2217 102.429 17.3712C102.078 17.7044 102.161 17.9532 102.328 18.098C102.494 18.2428 102.992 18.0753 103.344 17.6383Z" fill="black"/>
<path d="M106.868 16.3406C106.868 16.3406 104.395 15.2273 103.334 14.5455C102.273 13.8638 101.731 12.8483 102.207 12.577C102.684 12.3057 103.599 12.9464 104.245 13.7747C104.22 12.3011 104.468 11.989 104.862 11.967C105.257 11.9451 105.3 12.5261 105.323 13.3563C105.346 14.1865 105.493 14.5182 106.117 15.0768C106.491 15.4113 106.753 15.8524 106.868 16.3406Z" fill="#3442D9"/>
<path d="M97.8187 23.2593C97.2375 23.2611 96.7378 22.7644 97.1918 21.8913C97.6458 21.0181 99.1374 20.1418 99.8629 19.8075C100.588 19.4732 100.922 19.8043 100.943 20.0533C100.965 20.3023 100.862 20.6762 100.345 21.342C99.8281 22.0078 98.8772 23.2561 97.8187 23.2593Z" fill="white"/>
<path d="M98.2752 23.1957L97.9227 23.2591L97.4194 21.5585L97.709 21.2463L98.2752 23.1957Z" fill="#8CD9FF"/>
<path d="M99.559 22.2785L99.2695 22.5699L98.6818 20.4753L98.9925 20.2668L99.559 22.2785Z" fill="#8CD9FF"/>
<path d="M100.717 20.822L100.449 21.1965L100.029 19.7448L100.382 19.6814L100.717 20.822Z" fill="#8CD9FF"/>
<path d="M100.256 19.495C100.641 19.6773 101.037 19.8357 101.441 19.9688" stroke="black" stroke-linecap="round" stroke-linejoin="round"/>
<path d="M109.538 27.4997C109.14 27.1858 108.653 27.0057 108.146 26.985C107.067 26.9883 106.468 28.0487 106.264 29.0664C106.231 29.2297 106.143 29.3765 106.015 29.4827C105.887 29.589 105.726 29.6478 105.56 29.6497L105.414 29.6502C105.321 29.6332 105.231 29.5976 105.152 29.5451C105.072 29.4928 105.004 29.425 104.952 29.3456C104.899 29.2663 104.863 29.1771 104.846 29.0836C104.828 28.9898 104.83 28.8937 104.851 28.8009C105.24 26.8278 106.523 25.5577 108.142 25.5528C108.41 25.5553 108.669 25.6488 108.877 25.8179C109.085 25.9869 109.229 26.2216 109.286 26.4834L109.538 27.4997Z" fill="white"/>
<path d="M111.305 35.0291C111.351 35.2145 111.359 35.4075 111.329 35.5961C111.298 35.7849 111.23 35.9654 111.127 36.1268C111.025 36.2882 110.891 36.4271 110.733 36.5351C110.575 36.6433 110.397 36.7181 110.21 36.7552L109.691 36.7983C108.508 36.8019 107.281 36.0999 106.323 34.8781C106.265 34.8019 106.223 34.7153 106.199 34.623C106.175 34.5305 106.17 34.4344 106.183 34.3399C106.196 34.2454 106.228 34.1544 106.276 34.0723C106.325 33.9899 106.389 33.9181 106.465 33.8606C106.54 33.8004 106.627 33.7561 106.719 33.7305C106.812 33.7051 106.909 33.6988 107.004 33.712C107.1 33.7254 107.191 33.7579 107.273 33.8081C107.356 33.8581 107.427 33.9243 107.482 34.0028C108.149 34.8518 108.96 35.3683 109.687 35.3661C110.413 35.3639 110.848 34.9474 111.158 34.4068C111.2 34.635 111.263 34.8424 111.305 35.0291Z" fill="#2331B5"/>
<path d="M109.896 29.097C109.75 29.0983 109.607 29.145 109.488 29.2309C109.37 29.3167 109.28 29.4376 109.233 29.5764L108.369 31.9245C108.293 32.145 108.296 32.3847 108.376 32.6037C108.456 32.8226 108.608 33.0073 108.808 33.1271C108.899 33.1823 109.001 33.2166 109.106 33.2271C109.211 33.2378 109.318 33.2244 109.417 33.1882C109.517 33.1519 109.607 33.0938 109.681 33.018C109.755 32.9422 109.811 32.8507 109.845 32.7503L110.401 31.2334C110.254 30.5489 110.085 29.8437 109.896 29.097Z" fill="#5865F2"/>
<path d="M108.808 33.127C108.608 33.0072 108.456 32.8225 108.375 32.6036C108.295 32.3846 108.293 32.1449 108.369 31.9244L108.616 31.2802C108.657 31.1678 108.722 31.0657 108.807 30.9808C108.891 30.896 108.993 30.8305 109.106 30.7887C109.218 30.747 109.338 30.7301 109.457 30.739C109.577 30.748 109.693 30.7827 109.798 30.8408C109.969 30.9401 110.1 31.0956 110.169 31.2811C110.237 31.4665 110.239 31.6699 110.174 31.8567L109.845 32.7502C109.811 32.8506 109.755 32.9421 109.681 33.0179C109.607 33.0937 109.517 33.1518 109.417 33.1881C109.318 33.2243 109.211 33.2377 109.106 33.227C109 33.2165 108.899 33.1824 108.808 33.127Z" fill="#FFE75C"/>
</g>
<g clip-path="url(#clip1_302_680)">
<rect x="73.2432" y="5.47229" width="29.1892" height="29.1892" rx="14.5946" transform="rotate(-0.173721 73.2432 5.47229)" fill="#3442D9"/>
<path d="M79.7535 16.9235C78.894 14.1031 78.4332 12.7553 79.9667 11.9204C81.5002 11.0855 86.1721 11.6318 88.3531 12.1441C90.5342 12.6564 90.8472 13.1951 89.4214 15.3374L79.7535 16.9235Z" fill="#FFF4B3"/>
<path d="M78.8344 42.312C78.4768 33.9273 78.6632 26.9524 78.9218 23.2362C77.5284 22.3271 76.8828 21.6233 76.6117 21.2297C76.5554 21.1539 76.5265 21.0613 76.5302 20.9668C76.5336 20.8726 76.5691 20.7822 76.6309 20.7108C78.8227 17.9435 80.7043 15.53 82.6728 14.4031C84.6413 13.2763 87.3388 12.9775 91.6483 17.2404C91.6896 17.295 91.7102 17.3624 91.7066 17.4307C91.7031 17.4992 91.6755 17.5641 91.6287 17.614C91.2885 17.9538 90.9291 18.2737 90.5523 18.5721C91.4288 20.1262 92.7021 22.4886 92.7021 22.4886L93.6984 22.4856C94.3369 22.4837 94.9502 22.7355 95.403 23.1858C95.8561 23.6359 96.1116 24.2474 96.1135 24.8861C96.1401 26.8164 95.6905 29.1425 94.807 32.1342C98.8021 35.3602 97.8474 42.2336 97.8474 42.2336L78.8344 42.312Z" fill="#29CC7A"/>
<path d="M94.8067 32.1341C94.9299 31.6978 95.0532 31.3031 95.1558 30.8876L92.0268 32.6407C92.0268 32.6407 87.0558 29.3139 78.7261 27.2635C78.5925 31.1246 78.5876 36.3554 78.834 42.3119L97.8471 42.2542C97.8471 42.2542 98.8018 35.36 94.8067 32.1341Z" fill="#8CD9FF"/>
<path d="M95.5982 32.8998C95.3554 32.6238 95.0908 32.3679 94.8071 32.1342C94.9304 31.6979 95.0537 31.3031 95.1562 30.8877L92.0273 32.6408C92.0273 32.6408 87.0563 29.314 78.7266 27.2635C78.7073 27.741 78.6881 28.26 78.6897 28.7789C85.0699 31.3957 88.5085 35.9103 88.9222 42.2814L93.634 42.2671C94.4532 38.6114 95.1077 35.4128 95.5982 32.8998Z" fill="#BAE8FF"/>
<path d="M81.2303 24.8274L81.3134 24.8271C81.3548 24.7855 81.3962 24.7646 81.4168 24.7022L83.2049 18.8641C83.2169 18.8396 83.2237 18.8128 83.2242 18.7854C83.2247 18.7582 83.2195 18.7311 83.2084 18.7062C83.1975 18.6811 83.1811 18.6587 83.1607 18.6407C83.1401 18.6227 83.1159 18.6095 83.0896 18.6019C83.0634 18.5943 83.0358 18.5925 83.0088 18.5966C82.9818 18.6008 82.9561 18.6108 82.9333 18.6261C82.9107 18.6413 82.8917 18.6613 82.8775 18.6848C82.8634 18.7081 82.8546 18.7342 82.8517 18.7614L81.1253 24.4125C80.3711 24.0935 79.6474 23.7065 78.9631 23.2567L78.9216 23.2568C78.922 23.3814 78.9016 23.5267 78.902 23.6513C79.6206 24.1105 80.379 24.5043 81.1681 24.8275L81.2303 24.8274Z" fill="black"/>
<path d="M88.9236 15.4219L81.4943 15.9841C89.8018 17.5365 90.1553 17.7637 88.9236 15.4219Z" fill="black"/>
<path d="M87.0826 20.8266C87.3691 20.7099 87.4191 20.1676 87.1941 19.6155C86.9691 19.0636 86.5545 18.7108 86.2678 18.8275C85.9811 18.9444 85.9313 19.4865 86.1563 20.0385C86.3811 20.5906 86.7959 20.9435 87.0826 20.8266Z" fill="black"/>
<path d="M89.2261 21.9677C89.594 21.2675 89.5469 20.5183 89.1207 20.2944C88.6945 20.0702 88.0508 20.4564 87.6826 21.1564C87.3147 21.8566 87.362 22.6058 87.788 22.8299C88.2142 23.0538 88.8581 22.6679 89.2261 21.9677Z" stroke="white" stroke-miterlimit="10"/>
<path d="M92.2826 21.9626C92.6506 21.2626 92.6034 20.5134 92.1772 20.2893C91.7511 20.0654 91.1073 20.4513 90.7393 21.1515C90.3714 21.8517 90.4185 22.6009 90.8447 22.8248C91.2709 23.0488 91.9146 22.6628 92.2826 21.9626Z" stroke="white" stroke-miterlimit="10"/>
<path d="M90.1794 20.7169C90.3706 20.6391 90.3502 20.1458 90.1337 19.6149C89.9175 19.0841 89.5872 18.7169 89.3961 18.7949C89.2051 18.8727 89.2255 19.366 89.4417 19.897C89.6582 20.4277 89.9885 20.7949 90.1794 20.7169Z" fill="black"/>
<path d="M92.1732 26.1434C90.5706 26.1534 89.0138 25.6081 87.768 24.6C86.4779 23.5453 86.9964 23.4192 87.8059 23.396C88.6153 23.3728 92.4973 23.5063 93.6186 23.6689C94.74 23.8316 94.9543 26.0519 92.1732 26.1434Z" fill="#912869"/>
<path d="M92.1732 26.1434C90.5706 26.1534 89.0138 25.6081 87.768 24.6C86.4779 23.5453 86.9964 23.4192 87.8059 23.396C88.6153 23.3728 92.4973 23.5063 93.6186 23.6689C94.74 23.8316 94.9543 26.0519 92.1732 26.1434Z" fill="#611B46"/>
<path d="M92.0975 28.4684L92.0122 27.7007C92.5984 27.6522 93.1694 27.4881 93.692 27.2182" stroke="black" stroke-linecap="round" stroke-linejoin="round"/>
<path d="M92.941 26.0373C91.8169 24.9613 90.2992 24.1564 87.4976 24.3517C89.9121 26.5654 92.4226 26.1842 92.941 26.0373Z" fill="#EB459F"/>
<path d="M89.3564 21.2325L90.6226 21.2287" stroke="white" stroke-miterlimit="10"/>
<path d="M87.4475 21.4873L82.0857 19.3241C81.9733 19.2809 81.852 19.2657 81.7325 19.2793C81.6128 19.2932 81.4983 19.3357 81.3985 19.4032C81.2988 19.4708 81.2169 19.5615 81.1599 19.6675C81.1028 19.7736 81.0722 19.8918 81.0707 20.0122C81.0686 20.1539 81.1093 20.2929 81.1875 20.4112C81.2655 20.5293 81.3775 20.6213 81.5086 20.6751L81.862 20.84" stroke="white" stroke-miterlimit="10" stroke-linecap="round"/>
<path d="M86.3184 18.7716C86.7396 18.7812 87.1599 18.7238 87.5633 18.6018" stroke="black" stroke-miterlimit="10" stroke-linecap="round"/>
<path d="M89.4317 18.7622C89.6972 18.7683 89.9604 18.7106 90.1991 18.5939" stroke="black" stroke-miterlimit="10" stroke-linecap="round"/>
<path d="M80.4569 16.1948C87.8667 16.0686 90.3757 15.2307 92.4906 14.4563C94.6054 13.6818 94.3961 13.0805 92.7772 13.1477C91.1584 13.2149 85.6228 15.3489 80.4569 16.1948Z" fill="#FFF4B3"/>
<path d="M80.4573 16.1948L82.989 15.9796L89.0671 14.7572L87.5473 13.2673L80.3032 13.2893L80.4573 16.1948Z" fill="#FFF4B3"/>
<path d="M92.7477 23.8168L91.2944 23.7382C91.4631 24.6094 91.8796 25.0648 92.2321 24.9185C92.5845 24.7721 92.7067 24.0037 92.7477 23.8168Z" fill="white"/>
<path d="M88.2637 23.6436C88.4535 24.6393 88.8287 25.1571 89.1811 24.99C89.5334 24.8228 89.6139 23.9923 89.6752 23.66L88.2637 23.6436Z" fill="white"/>
<path d="M89.9148 13.7791C86.7182 14.6459 83.4776 15.3417 80.2069 15.8635" stroke="#FFC619" stroke-width="2" stroke-miterlimit="10" stroke-linecap="round"/>
</g>
<g clip-path="url(#clip2_302_680)">
<rect x="51.8406" y="6.51013" width="29.1892" height="29.1892" rx="14.5946" transform="rotate(-0.173721 51.8406 6.51013)" fill="#7196FF"/>
<path d="M62.8164 31.4274L62.1772 32.0651L66.8474 36.6679L67.4868 36.0301L62.8164 31.4274Z" fill="#2E3338"/>
<path d="M65.7277 31.4254L65.0884 32.0631L69.7586 36.6658L70.3979 36.0281L65.7277 31.4254Z" fill="#2E3338"/>
<path d="M70.9708 30.6105C72.173 29.4057 72.9144 27.8234 73.0676 26.1355C73.2208 24.4476 72.7762 22.7595 71.8104 21.3615L68.7806 16.9721L65.2121 16.983L65.2291 22.5934C65.2306 23.0808 65.0367 23.5487 64.6902 23.8944C64.3437 24.24 63.8729 24.435 63.3813 24.4365L57.6442 24.4539L57.648 25.7246C57.6537 27.5929 58.4063 29.3826 59.7408 30.7015C61.0752 32.0204 62.8828 32.7607 64.767 32.7601L65.8119 32.7569C67.7478 32.7349 69.5987 31.9649 70.9708 30.6105Z" fill="#FFD836"/>
<path d="M68.7741 14.9198C69.7205 14.917 70.6293 15.287 71.3006 15.9485C71.9717 16.6101 72.3505 17.5089 72.3533 18.4473L72.3561 19.3661L65.2191 19.3877L65.2162 18.4494C65.2186 17.5144 65.5942 16.6183 66.261 15.9569C66.9276 15.2955 67.8311 14.9227 68.7741 14.9198Z" fill="#FFD836"/>
<path d="M73.397 18.0531C73.5693 18.221 73.7055 18.4217 73.7977 18.6431C73.8898 18.8645 73.936 19.1021 73.9333 19.3417L70.5225 19.352C70.3957 19.3499 70.2723 19.3111 70.1675 19.2403C70.0626 19.1696 69.981 19.0701 69.9324 18.9539C69.8839 18.8377 69.8706 18.7101 69.8943 18.5865C69.918 18.463 69.9776 18.3491 70.0657 18.2587L70.7537 17.5724L70.7507 16.5949C70.7502 16.4687 70.7991 16.3471 70.8869 16.2557C70.9749 16.1643 71.0952 16.1102 71.2224 16.1048C71.3524 16.1114 71.4768 16.1589 71.5777 16.2406L73.397 18.0531Z" fill="#FF9A15"/>
<path d="M68.7739 14.9196L67.7289 14.9228C66.4428 14.9251 65.2081 14.4228 64.2942 13.5257L63.7798 12.9603L63.7809 13.3122C63.7843 14.4528 64.2446 15.5453 65.0605 16.3494C65.8763 17.1535 66.981 17.6032 68.1313 17.5997L68.7622 17.5978L68.7739 14.9196Z" fill="#FFD836"/>
<path d="M63.7119 16.538L66.5706 16.5293L66.5792 19.3638L63.7119 16.538Z" fill="#FFD836"/>
<path d="M59.3081 27.1858C59.8446 28.3134 60.7987 29.1926 61.972 29.6408C63.1454 30.089 64.4478 30.0719 65.6087 29.5927C66.7696 29.1136 67.6998 28.2094 68.2059 27.0681C68.712 25.9267 68.7552 24.6359 68.3266 23.4638L59.3081 27.1858Z" fill="#FF9A15"/>
<path d="M54.48 21.3358L56.7149 23.6358C57.0082 23.9212 57.2417 24.2614 57.4018 24.6366C57.5621 25.012 57.6458 25.4149 57.6481 25.8224L59.2451 25.8176L59.2417 24.7034C59.2379 24.0807 59.0261 23.4769 58.6393 22.9864C58.2526 22.4958 57.7127 22.1464 57.1042 21.9926L54.48 21.3358Z" fill="#FFD836"/>
<path d="M58.691 25.1547L58.514 25.331C58.4415 25.4005 58.3499 25.4472 58.2506 25.4653C58.1514 25.4833 58.049 25.4721 57.9563 25.4327C57.8635 25.3933 57.7846 25.3276 57.7293 25.244C57.6741 25.1603 57.6449 25.0623 57.6455 24.9622L57.6299 19.821L58.6779 20.854C59.248 21.4262 59.5688 22.1972 59.5712 23.0016C59.5737 23.8059 59.2576 24.5791 58.691 25.1547Z" fill="#FFD836"/>
<path d="M68.9992 17.5972C69.2497 17.5964 69.4521 17.3945 69.4513 17.1462C69.4506 16.8979 69.2469 16.6972 68.9965 16.698C68.746 16.6987 68.5436 16.9006 68.5443 17.149C68.5451 17.3973 68.7487 17.598 68.9992 17.5972Z" fill="#202225"/>
</g>
<g clip-path="url(#clip3_302_680)">
<rect x="30.9233" y="7.05994" width="29.1892" height="29.1892" rx="14.5946" transform="rotate(-0.173721 30.9233 7.05994)" fill="#FF78B9"/>
<path d="M54.7228 41.2958C55.7084 39.213 53.0384 35.8829 48.7588 33.8576C44.4794 31.8322 40.2111 31.8788 39.2255 33.9616C38.2398 36.0442 40.9099 39.3745 45.1895 41.3998C49.4688 43.425 53.7371 43.3784 54.7228 41.2958Z" fill="black"/>
<path d="M55.2417 29.7781C53.9731 28.9932 53.9109 29.0142 53.2013 27.7502C52.4918 26.4861 51.5974 25.8661 50.5591 25.724L51.8742 35.0398C54.575 35.8204 56.2314 34.4454 56.6009 33.0951C56.9704 31.7448 56.531 30.563 55.2417 29.7781Z" fill="#3442D9"/>
<path d="M53.9794 31.0065C53.6219 29.4924 52.6825 27.7309 51.5784 26.4058C51.1828 25.9271 50.9015 25.3644 50.7558 24.7606C50.6101 24.1568 50.6038 23.5278 50.7375 22.9212L51.1879 20.8442C51.5046 19.4025 51.3288 17.8964 50.689 16.5664C50.049 15.2363 48.9817 14.1592 47.6577 13.5069C46.898 13.1357 46.0716 12.9195 45.2273 12.8708C43.6384 12.7593 42.0687 13.2713 40.8511 14.298C39.6335 15.3248 38.8639 16.7856 38.7055 18.3704C38.6719 18.6389 38.6588 18.9096 38.6665 19.1801L38.6692 20.0726L38.722 23.8087C38.7722 25.4871 38.4214 27.1531 37.6989 28.6689C37.3989 29.2703 37.1711 29.9051 37.0197 30.5598L47.2024 41.3225C52.0362 40.4983 55.0526 35.8189 53.9794 31.0065Z" fill="#3442D9"/>
<path d="M47.223 41.3224C52.0361 40.4983 55.0524 35.8189 53.9792 31.0065C53.6427 29.5753 52.7867 27.9174 51.7657 26.6336" stroke="black" stroke-miterlimit="10" stroke-linecap="round"/>
<path d="M50.7421 31.3278C51.6921 29.7474 52.0664 29.9538 53.7698 30.4053C55.1408 30.754 56.7268 33.5514 54.6347 34.9692C52.5425 36.387 48.2641 35.5489 50.7421 31.3278Z" fill="#3442D9"/>
<path d="M45.9961 26.6899C46.187 26.543 46.2169 26.2621 46.0631 26.062C45.9093 25.8622 45.63 25.8192 45.4393 25.966C45.2485 26.1129 45.2185 26.3938 45.3723 26.5936C45.526 26.7937 45.8054 26.8366 45.9961 26.6899Z" fill="black"/>
<path d="M48.6113 26.8442C48.802 26.6975 48.8321 26.4164 48.6783 26.2165C48.5245 26.0167 48.2452 25.9735 48.0543 26.1205C47.8635 26.2672 47.8334 26.5483 47.9872 26.7481C48.141 26.948 48.4203 26.9911 48.6113 26.8442Z" fill="black"/>
<path d="M48.3406 26.5194C50.5671 28.3393 49.6577 29.6497 51.451 32.3427" stroke="white" stroke-miterlimit="10" stroke-linecap="round"/>
<path d="M45.8416 30.6161C47.2086 29.6571 47.6229 29.386 48.1419 29.4052L49.4915 29.5257L49.1552 35.0065L45.7301 34.9131L45.8416 30.6161Z" fill="#FFC619"/>
<path d="M52.4792 29.2052C52.505 29.1327 52.5132 29.055 52.5039 28.9787C52.4945 28.9023 52.4675 28.8291 52.4252 28.7649C52.3826 28.7007 52.326 28.6471 52.2595 28.6085C52.1927 28.5699 52.1182 28.5473 52.0413 28.5423L49.7571 28.2171C49.5914 28.2 49.4246 28.2403 49.2852 28.3315C49.1456 28.4226 49.0416 28.5589 48.9906 28.7176L47.7182 33.4955C47.6927 33.5683 47.6842 33.6457 47.6935 33.7221C47.7029 33.7984 47.7299 33.8716 47.7722 33.9358C47.8148 34.0001 47.8714 34.0537 47.9381 34.0923C48.0047 34.1309 48.0793 34.1535 48.1561 34.1584L50.4403 34.4836C50.6062 34.5008 50.7728 34.4604 50.9124 34.3693C51.0518 34.2781 51.1558 34.1419 51.2068 33.9831L52.4792 29.2052Z" fill="black"/>
<path d="M52.3741 28.7282L52.6241 29.018L51.9393 29.0824L52.3741 28.7282Z" fill="black"/>
<path d="M53.5045 31.8797C53.2124 31.4031 52.9408 30.802 52.1516 30.6799L52.0509 31.6765L53.5045 31.8797Z" fill="#FFC619"/>
<path d="M52.7086 29.4745C52.7302 29.402 52.7356 29.3256 52.7243 29.2507C52.7131 29.1758 52.6857 29.1042 52.644 29.041C52.6023 28.9779 52.5473 28.9247 52.4829 28.885C52.4184 28.8454 52.3459 28.8203 52.2707 28.8116L49.9657 28.4864C49.8007 28.473 49.6356 28.5151 49.497 28.6056C49.3582 28.6963 49.2533 28.8303 49.1992 28.9869L47.9268 33.7649C47.9052 33.8374 47.8998 33.9138 47.9111 33.9887C47.9223 34.0636 47.9497 34.1351 47.9914 34.1983C48.0331 34.2615 48.0881 34.3149 48.1525 34.3543C48.2172 34.394 48.2895 34.4191 48.3647 34.4278L50.6696 34.7321C50.8312 34.7582 50.9967 34.7235 51.1343 34.635C51.2718 34.5464 51.3721 34.4103 51.4154 34.2525L52.7086 29.4745Z" fill="white"/>
<path d="M52.0085 31.3654L52.9429 31.5079C53.1323 31.5283 53.3059 31.6222 53.4267 31.7692C53.5476 31.9164 53.6057 32.1051 53.5888 32.2947C53.5843 32.3933 53.5593 32.4899 53.5153 32.5782C53.4712 32.6664 53.4092 32.7446 53.3332 32.8073C53.257 32.8702 53.1687 32.9164 53.0735 32.9428C52.9785 32.9695 52.8789 32.9758 52.7813 32.9613L52.096 32.8596C51.8832 32.8298 51.6861 32.7303 51.5353 32.577C51.3848 32.4234 51.2891 32.2246 51.2632 32.0111C51.2577 31.9161 51.2742 31.821 51.3113 31.7332C51.3484 31.6455 51.4052 31.5675 51.4771 31.505C51.5491 31.4428 51.6345 31.3977 51.7266 31.3735C51.8187 31.3494 51.9152 31.3466 52.0085 31.3654Z" fill="#FFC619"/>
<path d="M51.7014 32.7569L52.3451 32.8587C52.4529 32.8721 52.5564 32.9085 52.6485 32.9658C52.7406 33.023 52.8191 33.0997 52.8786 33.1903C52.9382 33.281 52.9773 33.3836 52.9932 33.4909C53.0091 33.5982 53.0013 33.7076 52.9707 33.8117C52.927 33.9791 52.8216 34.1239 52.6755 34.2167C52.5295 34.3095 52.3538 34.3437 52.1835 34.3122L51.7889 34.2511C51.5736 34.2221 51.3736 34.1235 51.2195 33.9704C51.0655 33.8172 50.9657 33.6178 50.9353 33.4027C50.929 33.3054 50.9457 33.2082 50.9839 33.1184C51.0222 33.0288 51.0809 32.9493 51.1554 32.8864C51.23 32.8237 51.3181 32.7792 51.413 32.7567C51.5078 32.7342 51.6066 32.7344 51.7014 32.7569Z" fill="#FFC619"/>
<path d="M49.6951 35.1293L47.4525 34.8248L47.5535 33.9112L49.7962 34.2365L49.6951 35.1293Z" fill="#FFC619"/>
<path d="M50.2237 31.4954L48.8116 31.2921C48.7444 31.2831 48.6812 31.2549 48.6294 31.211C48.5777 31.167 48.5398 31.109 48.5203 31.0439L48.3946 30.6706L48.2885 29.9029L47.5287 32.6036L49.8129 32.9288C50.0256 32.9566 50.2413 32.912 50.4255 32.8022C50.6097 32.6925 50.7516 32.5241 50.8282 32.3238C50.8526 32.2289 50.8556 32.1296 50.8373 32.0334C50.8187 31.9371 50.7792 31.8461 50.7215 31.767C50.6637 31.6877 50.589 31.6223 50.5031 31.5755C50.4171 31.5284 50.3217 31.5011 50.2237 31.4954Z" fill="#FFC619"/>
<path d="M49.7715 32.9082L47.5288 32.6036L47.6371 34.0978L49.3607 34.3417C49.571 34.3724 49.7853 34.3285 49.9668 34.2182C50.1483 34.1078 50.2856 33.9374 50.3552 33.7367C50.3833 33.6432 50.3899 33.5446 50.3744 33.4481C50.3588 33.3516 50.3213 33.2602 50.2653 33.1803C50.209 33.1005 50.1353 33.0345 50.0496 32.9873C49.9642 32.9402 49.869 32.9131 49.7715 32.9082Z" fill="#FFC619"/>
<path d="M65.6988 42.0136C65.7542 39.7717 63.9058 39.4245 62.6373 38.6396C61.3687 37.8546 59.8692 36.1986 58.3091 35.0825C56.7489 33.9664 55.3998 33.9912 52.7662 34.8087L55.7936 40.653C57.4983 41.5196 57.8748 42.4733 58.792 43.7574C59.7092 45.0415 60.9354 45.536 62.1593 45.304C62.806 46.3606 62.9313 46.6093 63.8643 46.2744C64.7974 45.9394 66.3312 45.229 66.7426 44.0031C67.1541 42.7772 66.5515 42.5715 65.6988 42.0136Z" fill="#66BCFF"/>
<path d="M55.6588 37.2077C55.3825 38.0996 55.2045 39.0189 55.1274 39.9492" stroke="black" stroke-width="2" stroke-miterlimit="10" stroke-linecap="round"/>
<path d="M56.916 47.9975C55.0323 49.7052 53.4326 49.2327 52.6851 49.1519C51.9376 49.0712 52.019 48.5312 51.9553 48.0748C51.8917 47.6183 51.8481 46.9335 51.8481 46.9335C49.9588 46.8147 49.7266 45.5284 49.6816 44.387C49.6367 43.2455 49.3456 43.0803 49.1978 42.2712C46.9191 41.869 44.7639 40.9477 42.8987 39.5782C41.0334 38.209 39.5089 36.4283 38.4426 34.3747L40.4101 32.9365L44.8192 35.7876C47.7841 34.6785 49.4222 34.1131 51.0201 34.0045C52.6181 33.8958 54.1974 34.493 54.723 36.7124C55.2487 38.9318 55.313 39.6166 55.7936 40.6737C55.919 40.9432 56.1277 41.3162 56.3365 41.7099C56.9212 42.8913 57.5282 44.55 56.3506 46.3594C56.4965 46.9192 56.6856 47.467 56.916 47.9975Z" fill="#8CD9FF"/>
<path d="M41.6726 38.5577C41.6059 37.0842 42.1632 36.0446 43.1798 35.8755L40.6005 34.0982L38.7349 34.9134C39.2163 36.2404 40.4454 37.6896 41.6726 38.5577Z" fill="black"/>
<path d="M45.882 30.3254C45.2785 29.8083 44.822 29.8512 44.0964 30.1647C43.3263 29.4613 42.3297 29.3606 41.2929 29.7166C40.2562 30.0726 38.6593 30.5548 37.726 30.8068C37.674 30.8264 37.6173 30.8305 37.5629 30.8189C37.5085 30.807 37.4586 30.78 37.4191 30.7408C37.3797 30.7015 37.3524 30.6518 37.3404 30.5974C37.3282 30.5431 37.3321 30.4864 37.3513 30.4343L38.0287 27.9414C35.8128 29.6087 35.0971 33.1602 35.8086 35.0885C36.5202 37.0167 39.5921 36.9866 40.5661 36.444C41.54 35.9014 41.8716 35.7343 42.9931 35.9385C44.1146 36.1427 44.9868 36.2853 46.4571 35.16L47.328 34.8667C47.6544 32.9769 47.3597 31.6078 45.882 30.3254Z" fill="#3442D9"/>
<path d="M45.882 30.3253C45.2785 29.8082 44.822 29.8511 44.0964 30.1647C43.3263 29.4613 42.3297 29.3605 41.2929 29.7165C40.2561 30.0725 38.6593 30.5548 37.726 30.8067" stroke="black" stroke-miterlimit="10" stroke-linecap="round"/>
<path d="M44.0964 30.1648C44.7179 30.643 45.2359 31.2422 45.6197 31.9258C46.0035 32.6096 46.2449 33.364 46.3295 34.1433" stroke="black" stroke-miterlimit="10" stroke-linecap="round"/>
<path d="M50.3839 29.5231C50.3932 29.4944 50.3962 29.4641 50.3926 29.434C50.389 29.4041 50.3789 29.3753 50.3629 29.3498C50.347 29.3241 50.3258 29.3022 50.3006 29.2856C50.2754 29.2691 50.247 29.2582 50.2171 29.2537L50.0095 29.2543C49.9518 29.2419 49.8914 29.2524 49.8412 29.2835C49.7909 29.3146 49.7547 29.3639 49.7402 29.4212L49.5554 30.1068C49.546 30.1371 49.5436 30.1691 49.5485 30.2004C49.5533 30.2317 49.5652 30.2614 49.5832 30.2875C49.6013 30.3134 49.6252 30.3349 49.6529 30.3504C49.6805 30.3656 49.7115 30.3745 49.7431 30.376L49.9506 30.3754C50.0052 30.3823 50.0604 30.369 50.1062 30.3384C50.1518 30.3077 50.1848 30.2618 50.1992 30.2086L50.3839 29.5231Z" fill="#29CC7A"/>
<path d="M47.0508 25.5478C47.2103 25.2224 47.4462 24.9407 47.7383 24.7266C48.0305 24.5124 48.3703 24.3722 48.7284 24.3181C48.7699 24.3179 48.7905 24.2763 48.7697 24.2557C48.4968 23.2602 48.6197 22.6993 48.9703 21.9718C48.9739 21.9665 48.9761 21.9605 48.9769 21.9542C48.9777 21.9479 48.9771 21.9416 48.9752 21.9356C48.9731 21.9295 48.9698 21.9241 48.9652 21.9196C48.9608 21.9151 48.9554 21.9117 48.9494 21.9096C47.7855 21.415 47.3471 20.586 47.2207 19.9637C47.1998 19.9222 47.1375 19.9017 47.1168 19.9432C46.6011 20.9826 45.8955 21.0263 45.2933 20.9451C45.2518 20.9452 45.2311 20.9868 45.2519 21.0075C45.8574 22.168 45.424 22.9996 44.8239 23.5826C44.8208 23.5908 44.8191 23.5995 44.8196 23.6083C44.82 23.617 44.8223 23.6256 44.8263 23.6334C44.8303 23.6413 44.8357 23.6482 44.8425 23.6537C44.8492 23.6592 44.8571 23.6633 44.8656 23.6655C46.0286 23.8696 46.6536 24.6357 46.9469 25.5273C46.9678 25.5688 47.0302 25.5893 47.0508 25.5478Z" fill="#FFC619"/>
<path d="M49.7715 32.9082L48.5879 32.7457" stroke="black" stroke-miterlimit="10" stroke-linecap="round"/>
<path d="M51.9299 32.8394L52.5945 32.9411" stroke="black" stroke-miterlimit="10" stroke-linecap="round"/>
<path d="M47.179 19.9223C47.6944 18.7584 47.6504 17.949 47.5037 17.4928" stroke="black" stroke-miterlimit="10" stroke-linecap="round"/>
<path d="M48.8456 21.9514C49.1695 22.0001 49.5003 21.9784 49.8151 21.8879C50.1302 21.7974 50.4219 21.6402 50.6706 21.427" stroke="black" stroke-miterlimit="10" stroke-linecap="round"/>
<path d="M47.0508 25.5478C47.0529 25.7022 47.0324 25.8563 46.9899 26.0046" stroke="black" stroke-miterlimit="10" stroke-linecap="round"/>
<path d="M44.9276 23.6031C44.1613 24.1451 42.9986 24.0656 42.1884 23.819" stroke="black" stroke-miterlimit="10" stroke-linecap="round"/>
<path d="M45.2932 20.945C45.0008 20.344 44.4591 19.6607 43.9602 19.4338" stroke="black" stroke-miterlimit="10" stroke-linecap="round"/>
<path d="M48.7695 24.2555C49.0377 24.3976 49.3245 24.5015 49.6215 24.5643" stroke="black" stroke-miterlimit="10" stroke-linecap="round"/>
<path d="M46.5419 22.0415C46.8989 23.4104 47.3553 23.326 47.5616 22.9102C47.7679 22.4944 47.9117 21.9751 48.2439 22.0156C48.5761 22.0561 48.4949 22.6375 48.103 23.469C47.7111 24.3005 47.0682 24.4892 46.4641 23.7646C45.86 23.0399 45.8371 22.3342 45.8148 21.8361C45.7925 21.3381 46.3111 21.2119 46.5419 22.0415Z" fill="#C40655"/>
<path d="M45.7247 26.3613C45.9825 29.225 44.5337 30.5993 44.0857 33.4444" stroke="white" stroke-miterlimit="10" stroke-linecap="round"/>
<path d="M49.0318 42.2925C48.6545 41.069 48.4817 38.8277 49.4928 36.8528" stroke="black" stroke-width="2" stroke-miterlimit="10" stroke-linecap="round"/>
<path d="M38.535 30.576L37.0005 31.0788" stroke="black" stroke-miterlimit="10" stroke-linecap="round"/>
<path d="M53.7905 30.3429L54.8292 30.6303" stroke="black" stroke-miterlimit="10" stroke-linecap="round"/>
</g>
<g clip-path="url(#clip4_302_680)">
<rect x="10.0044" y="7.12341" width="29.1892" height="29.1892" rx="14.5946" transform="rotate(-0.173721 10.0044 7.12341)" fill="url(#paint0_linear_302_680)"/>
<path d="M36.5188 18.7086C38.0295 12.891 38.7609 11.8577 42.2968 19.346L36.5188 18.7086Z" fill="#D4E1FF"/>
<path d="M22.0857 31.1716L21.947 31.2918C24.0568 33.2694 27.2689 38.3576 32.1305 38.0857C32.1305 38.0857 36.0825 45.2552 40.3085 44.4493C44.5344 43.6426 47.6519 37.681 47.6519 37.681C48.7907 35.6233 49.5947 33.3974 50.0338 31.0869C49.9727 30.5519 49.7729 30.1355 49.3953 29.8787C46.3718 27.8845 24.2842 29.5586 22.0857 31.1716Z" fill="#1C1B29"/>
<path d="M28.4527 16.4316L32.8823 17.6082C34.1977 17.0412 35.6164 16.7534 37.0487 16.7631C43.7971 16.7426 47.4064 22.2073 47.4268 28.9323C47.4472 35.6582 43.8711 41.1446 37.1227 41.165C30.3735 41.1855 26.7843 35.7208 26.7639 28.995C26.7568 28.0046 26.8334 27.0154 26.9928 26.0379C27.4422 23.4571 27.3128 20.8073 26.6117 18.2822C26.5435 18.0269 26.5434 17.7582 26.6115 17.5029C26.6797 17.2476 26.8136 17.0147 27 16.8274C27.1863 16.6401 27.4185 16.5049 27.6735 16.4355C27.9284 16.366 28.1971 16.3647 28.4527 16.4316Z" fill="#B3CAFF"/>
<path d="M47.1978 31.85C43.9269 33.308 40.5481 31.7898 37.2872 29.9354C33.7276 27.9027 31.429 22.7314 30.4516 21.0879C29.4743 19.4435 28.0832 19.1311 27.1237 16.7338C26.897 16.9141 26.728 17.1567 26.6372 17.4317C26.5463 17.7068 26.5378 18.0023 26.6125 18.2822C27.3131 20.8075 27.443 23.457 26.9928 26.0388C26.8335 27.016 26.7569 28.0049 26.7639 28.995C26.7843 35.7209 30.3936 41.1855 37.1227 41.1651C42.8594 41.1477 46.3011 37.1692 47.1978 31.8492L47.1978 31.85Z" fill="#8DAEF7"/>
<path d="M46.5965 29.847C46.6124 35.0846 43.509 39.3401 39.6776 39.3517C35.847 39.3634 32.7372 35.1267 32.7213 29.889C32.6951 21.2394 38.0956 28.3058 41.927 28.2942C45.7576 28.2826 46.6728 22.4273 46.5965 29.847Z" fill="#FCFDFF"/>
<path d="M39.779 34.9181C40.151 34.8856 40.4081 34.3641 40.3557 33.7528C40.3024 33.1414 39.9578 32.6724 39.5867 32.704C39.2155 32.7373 38.9575 33.2588 39.0108 33.8693C39.0641 34.4807 39.4079 34.9506 39.779 34.9181ZM44.3362 33.891C44.4452 33.2872 44.2363 32.7438 43.8688 32.6782C43.5022 32.6118 43.1162 33.0477 43.0071 33.6515C42.8989 34.2545 43.1079 34.7979 43.4745 34.8643C43.8411 34.9307 44.2271 34.4948 44.3362 33.891Z" fill="#1C1B29"/>
<path d="M59.855 94.9196C57.0378 95.5236 48.5776 87.5143 48.5776 87.5143C50.9221 94.8077 51.3257 96.989 51.7283 98.8721C52.131 100.756 51.8935 101.134 51.7392 102.463C51.5841 103.793 51.584 103.753 52.383 105.418C53.182 107.081 53.7022 108.25 53.8631 109.103C53.9241 109.599 53.9055 110.101 53.8081 110.591L18.3371 110.698C18.3371 110.698 18.1555 109.906 18.9033 107.701C19.6512 105.497 21.3725 103.667 22.3206 102.274C23.2694 100.883 23.2103 101.022 22.9506 100.448C21.7512 97.6339 23.6784 98.2436 24.4796 94.0152C25.28 89.7867 25.4777 69.6293 27.2583 61.3912C29.0398 53.1524 31.7933 51.1994 31.9712 44.3942C28.6068 41.2705 20.2651 33.1411 21.947 31.291C23.8577 33.0707 29.5769 33.9269 34.2415 33.8733C34.6507 33.8662 35.0517 33.9883 35.3874 34.2224C35.7231 34.4564 35.9765 34.7903 36.1114 35.1767C36.9126 37.5745 38.9319 42.3103 42.0864 41.6852C45.241 41.0609 47.5655 35.4192 48.215 33.3737C48.3519 32.9272 48.6377 32.5412 49.0249 32.28C49.4473 31.9643 49.7923 31.5565 50.0338 31.0877C50.4828 34.9941 44.0229 45.3694 44.0229 45.3694C44.0229 45.3694 45.6735 59.4108 48.9034 64.0232C52.1325 68.6364 61.1646 68.609 61.3957 73.0127C61.6276 77.4156 62.652 94.3157 59.855 94.9196Z" fill="#BD4070"/>
<path d="M32.4007 35.5448C30.0579 35.4128 26.9011 35.0254 21.8318 32.5216C22.654 35.4747 29.1248 41.7245 31.9711 44.3942C31.9347 46.505 31.559 48.5961 30.8585 50.5875C33.4296 54.2103 36.5194 51.84 37.1064 62.0356C37.3575 66.3798 40.5707 72.1429 43.9245 78.3822C47.2783 84.6214 47.6999 73.133 47.5437 67.4795C47.4548 64.4045 46.8285 60.5975 46.1618 56.9689C44.7365 51.4776 44.0229 45.3694 44.0229 45.3694C44.0229 45.3694 48.5467 38.0946 49.7628 33.4486C49.4532 33.6424 49.2114 33.9276 49.071 34.2639C47.848 37.0438 46.478 39.7566 44.9669 42.3909C43.4063 45.0346 40.4926 46.3524 37.1219 41.1651C33.752 35.977 34.922 35.6962 32.4007 35.5448Z" fill="#A12C66"/>
<path d="M33.8403 25.8195C37.3393 27.4948 38.5568 29.6342 41.3554 29.5462C44.154 29.4582 45.2411 28.1057 46.3671 26.2974C45.9076 25.3064 44.6663 28.2858 41.9269 28.2941C39.1876 28.3024 35.6038 24.6434 33.8403 25.8195Z" fill="#8DAEF7"/>
</g>
<path d="M126.455 25.4506L126.449 23.1946L124.097 23.2017L124.093 21.8417L126.445 21.8346L126.437 19.4986L127.829 19.4944L127.837 21.8304L130.189 21.8232L130.193 23.1832L127.841 23.1903L127.847 25.4463L126.455 25.4506Z" fill="#263238"/>
<path d="M143.332 25.6423L143.336 26.9223L137.592 26.9397L137.588 25.6598L139.86 25.6529L139.841 19.4129C139.745 19.5412 139.596 19.6803 139.394 19.8303C139.192 19.9695 138.963 20.1036 138.707 20.2323C138.452 20.3611 138.196 20.4686 137.94 20.5547C137.684 20.6301 137.45 20.6682 137.237 20.6688L137.233 19.3248C137.467 19.3241 137.723 19.2593 138 19.1305C138.287 18.9909 138.564 18.8301 138.83 18.648C139.097 18.4658 139.32 18.2945 139.501 18.1339C139.692 17.9733 139.804 17.861 139.836 17.7969L141.276 17.7925L141.3 25.6485L143.332 25.6423ZM150.535 25.6205L150.539 26.9005L144.795 26.9179L144.791 25.6379L147.063 25.631L147.044 19.3911C146.948 19.5193 146.799 19.6585 146.597 19.8084C146.395 19.9477 146.166 20.0817 145.91 20.2105C145.655 20.3393 145.399 20.4467 145.143 20.5328C144.888 20.6083 144.653 20.6463 144.44 20.647L144.436 19.303C144.67 19.3023 144.926 19.2375 145.203 19.1086C145.491 18.9691 145.767 18.8083 146.034 18.6261C146.3 18.444 146.523 18.2726 146.704 18.1121C146.896 17.9515 147.007 17.8392 147.039 17.7751L148.479 17.7707L148.503 25.6267L150.535 25.6205Z" fill="#263238"/>
<path d="M157.125 26.0205C156.519 26.0224 155.949 25.9261 155.416 25.7317C154.884 25.528 154.426 25.2261 154.042 24.8259L154.515 23.9565C154.936 24.3472 155.357 24.6259 155.778 24.7926C156.198 24.9594 156.628 25.0421 157.066 25.0407C157.57 25.0392 157.981 24.9446 158.298 24.757C158.614 24.56 158.772 24.2749 158.771 23.9016C158.77 23.6309 158.686 23.4305 158.517 23.3003C158.358 23.1701 158.129 23.0635 157.83 22.9804C157.531 22.888 157.176 22.7864 156.765 22.6756C156.261 22.5278 155.836 22.3704 155.49 22.2035C155.144 22.0365 154.882 21.8273 154.704 21.5759C154.526 21.3244 154.436 21.0073 154.435 20.6247C154.434 20.158 154.554 19.7657 154.795 19.4476C155.037 19.1202 155.368 18.8718 155.787 18.7026C156.216 18.5333 156.701 18.4478 157.242 18.4462C157.784 18.4445 158.274 18.527 158.713 18.6937C159.152 18.8604 159.531 19.1066 159.849 19.4323L159.292 20.288C159.002 19.9902 158.684 19.7718 158.338 19.6328C157.992 19.4846 157.605 19.4111 157.175 19.4124C156.923 19.4131 156.676 19.4465 156.434 19.5126C156.191 19.5694 155.991 19.6773 155.833 19.8364C155.674 19.9863 155.596 20.2012 155.597 20.4812C155.597 20.7145 155.659 20.901 155.78 21.0406C155.911 21.1709 156.098 21.2823 156.341 21.3749C156.594 21.4675 156.897 21.5692 157.252 21.6801C157.803 21.8371 158.28 21.9944 158.682 22.1518C159.093 22.3092 159.411 22.5136 159.636 22.7649C159.86 23.0162 159.973 23.3659 159.975 23.8139C159.977 24.5046 159.717 25.0467 159.196 25.4403C158.674 25.8245 157.984 26.0179 157.125 26.0205ZM165.234 25.492C165.131 25.5389 164.991 25.6 164.814 25.6752C164.637 25.7504 164.432 25.8164 164.199 25.8731C163.966 25.9298 163.718 25.9586 163.457 25.9594C163.158 25.9603 162.883 25.9098 162.631 25.8079C162.378 25.6966 162.177 25.5292 162.027 25.3057C161.877 25.0728 161.802 24.7837 161.801 24.4384L161.786 19.5244L160.792 19.5274L160.789 18.5614L161.783 18.5584L161.775 16.1224L163.007 16.1187L163.015 18.5547L164.653 18.5497L164.656 19.5157L163.018 19.5207L163.031 24.0566C163.051 24.3179 163.14 24.5136 163.299 24.6438C163.458 24.7647 163.645 24.8248 163.86 24.8241C164.102 24.8234 164.326 24.7807 164.531 24.6961C164.736 24.6115 164.872 24.5504 164.937 24.5129L165.234 25.492ZM166.298 22.9267L166.285 18.5447L167.517 18.541L167.529 22.685C167.531 23.4317 167.664 23.9913 167.926 24.3638C168.189 24.7363 168.577 24.9218 169.09 24.9203C169.426 24.9192 169.748 24.8483 170.055 24.7073C170.372 24.557 170.656 24.3462 170.907 24.0748C171.159 23.8033 171.354 23.4807 171.492 23.107L171.479 18.529L172.711 18.5253L172.728 24.4332C172.729 24.5826 172.757 24.6945 172.813 24.769C172.879 24.8341 172.982 24.8711 173.122 24.88L173.125 25.832C172.985 25.8511 172.873 25.8608 172.789 25.8611C172.714 25.8706 172.639 25.8755 172.565 25.8757C172.331 25.8764 172.131 25.8071 171.962 25.6676C171.794 25.5187 171.705 25.337 171.695 25.1224L171.664 24.2685C171.348 24.8108 170.92 25.2321 170.38 25.5324C169.849 25.8326 169.266 25.9837 168.631 25.9857C167.866 25.988 167.286 25.7331 166.893 25.2209C166.499 24.6995 166.301 23.9347 166.298 22.9267ZM174.298 22.1885C174.296 21.4978 174.434 20.8674 174.712 20.2972C175 19.7177 175.39 19.2545 175.884 18.9076C176.387 18.5608 176.96 18.3864 177.604 18.3844C178.192 18.3826 178.72 18.535 179.188 18.8416C179.655 19.1482 180.02 19.5204 180.283 19.9583L180.27 15.5903L181.502 15.5866L181.529 24.4066C181.529 24.5559 181.557 24.6678 181.614 24.7423C181.679 24.8074 181.782 24.8445 181.922 24.8534L181.925 25.8054C181.692 25.8434 181.51 25.8626 181.379 25.863C181.136 25.8637 180.921 25.7804 180.734 25.613C180.556 25.4455 180.467 25.2591 180.467 25.0538L180.465 24.4378C180.177 24.9053 179.791 25.2752 179.306 25.5473C178.822 25.8194 178.318 25.9563 177.795 25.9579C177.291 25.9594 176.824 25.8628 176.394 25.6681C175.974 25.4641 175.604 25.1852 175.286 24.8315C174.977 24.4778 174.733 24.0772 174.554 23.6297C174.385 23.1729 174.299 22.6925 174.298 22.1885ZM180.293 23.2483L180.287 21.1483C180.174 20.8313 179.991 20.5472 179.738 20.296C179.485 20.0354 179.2 19.8309 178.882 19.6826C178.574 19.5248 178.266 19.4464 177.958 19.4474C177.594 19.4485 177.262 19.5288 176.964 19.6884C176.675 19.8386 176.424 20.0447 176.21 20.3067C176.006 20.5593 175.848 20.8491 175.737 21.1761C175.626 21.5031 175.571 21.8439 175.572 22.1986C175.573 22.5626 175.635 22.9077 175.757 23.234C175.889 23.5603 176.067 23.8491 176.292 24.1004C176.526 24.3517 176.792 24.5469 177.091 24.686C177.4 24.8251 177.731 24.8941 178.086 24.893C178.31 24.8923 178.539 24.8496 178.772 24.7649C179.014 24.6802 179.242 24.5628 179.457 24.4128C179.671 24.2629 179.852 24.0896 180.001 23.8932C180.15 23.6874 180.247 23.4724 180.293 23.2483ZM186.824 25.9305C186.273 25.9322 185.769 25.8357 185.311 25.6411C184.862 25.4371 184.47 25.163 184.133 24.8187C183.805 24.465 183.547 24.0598 183.359 23.603C183.18 23.1462 183.09 22.6611 183.088 22.1478C183.086 21.4571 183.243 20.8267 183.559 20.2564C183.874 19.6861 184.312 19.2274 184.871 18.8804C185.439 18.5333 186.087 18.3587 186.815 18.3565C187.552 18.3543 188.192 18.5297 188.735 18.8827C189.286 19.2263 189.712 19.6824 190.013 20.2508C190.322 20.8099 190.478 21.4161 190.48 22.0694C190.481 22.1627 190.476 22.2561 190.467 22.3494C190.467 22.4334 190.463 22.4988 190.454 22.5455L184.392 22.5639C184.43 23.0397 184.562 23.464 184.788 23.8367C185.022 24.2 185.322 24.4884 185.686 24.7019C186.051 24.9062 186.443 25.0077 186.863 25.0064C187.311 25.005 187.731 24.8917 188.122 24.6666C188.523 24.4413 188.797 24.1465 188.945 23.7821L190.01 24.0728C189.853 24.428 189.616 24.746 189.299 25.027C188.992 25.3079 188.624 25.5284 188.195 25.6883C187.776 25.8483 187.319 25.929 186.824 25.9305ZM184.347 21.71L189.331 21.6949C189.292 21.219 189.156 20.7994 188.921 20.4361C188.687 20.0728 188.387 19.7891 188.023 19.5848C187.658 19.3806 187.256 19.2792 186.818 19.2805C186.388 19.2818 185.992 19.3857 185.629 19.5921C185.265 19.7985 184.968 20.0841 184.735 20.4488C184.512 20.8135 184.383 21.2339 184.347 21.71ZM198.203 25.756L196.971 25.7597L196.959 21.6718C196.956 20.8971 196.833 20.3328 196.589 19.9789C196.355 19.6156 195.995 19.4347 195.51 19.4361C195.174 19.4372 194.838 19.5222 194.503 19.6912C194.176 19.8602 193.883 20.0897 193.623 20.3799C193.371 20.6606 193.19 20.9878 193.08 21.3615L193.093 25.7715L191.861 25.7752L191.839 18.4673L192.959 18.4639L192.964 20.0319C193.159 19.6859 193.41 19.3865 193.717 19.1336C194.024 18.8806 194.373 18.6836 194.765 18.5424C195.157 18.4012 195.567 18.33 195.996 18.3287C196.416 18.3274 196.767 18.4057 197.047 18.5635C197.337 18.7119 197.562 18.9259 197.721 19.2054C197.89 19.4756 198.008 19.7972 198.074 20.1704C198.15 20.5435 198.188 20.9494 198.19 21.388L198.203 25.756ZM203.829 25.3749C203.727 25.4219 203.587 25.483 203.41 25.5582C203.233 25.6334 203.028 25.6994 202.794 25.7561C202.561 25.8128 202.314 25.8415 202.053 25.8423C201.754 25.8432 201.479 25.7927 201.226 25.6908C200.974 25.5796 200.773 25.4122 200.623 25.1887C200.473 24.9558 200.397 24.6667 200.396 24.3213L200.381 19.4074L199.387 19.4104L199.384 18.4444L200.378 18.4414L200.371 16.0054L201.603 16.0016L201.61 18.4376L203.248 18.4327L203.251 19.3987L201.613 19.4036L201.627 23.9396C201.646 24.2009 201.736 24.3966 201.895 24.5268C202.054 24.6477 202.241 24.7078 202.455 24.7071C202.698 24.7064 202.922 24.6637 203.127 24.5791C203.332 24.4944 203.467 24.4334 203.532 24.3958L203.829 25.3749ZM207.479 25.8679C206.872 25.8697 206.302 25.7734 205.77 25.5791C205.237 25.3753 204.779 25.0734 204.395 24.6732L204.868 23.8038C205.29 24.1945 205.71 24.4732 206.131 24.64C206.551 24.8067 206.981 24.8894 207.42 24.8881C207.924 24.8865 208.334 24.7919 208.651 24.6043C208.968 24.4074 209.125 24.1222 209.124 23.7489C209.123 23.4782 209.039 23.2778 208.87 23.1476C208.711 23.0175 208.482 22.9108 208.183 22.8277C207.884 22.7353 207.53 22.6337 207.119 22.523C206.614 22.3752 206.189 22.2178 205.843 22.0508C205.497 21.8839 205.235 21.6747 205.057 21.4232C204.879 21.1717 204.789 20.8547 204.788 20.472C204.787 20.0053 204.907 19.613 205.149 19.2949C205.39 18.9675 205.721 18.7192 206.14 18.5499C206.569 18.3806 207.054 18.2951 207.596 18.2935C208.137 18.2918 208.627 18.3744 209.066 18.541C209.506 18.7077 209.884 18.9539 210.203 19.2796L209.645 20.1353C209.355 19.8375 209.037 19.6191 208.691 19.4802C208.346 19.3319 207.958 19.2584 207.529 19.2597C207.277 19.2605 207.029 19.2939 206.787 19.3599C206.544 19.4167 206.344 19.5246 206.186 19.6838C206.028 19.8336 205.949 20.0485 205.95 20.3285C205.951 20.5618 206.012 20.7483 206.134 20.8879C206.265 21.0182 206.452 21.1296 206.695 21.2222C206.947 21.3148 207.25 21.4165 207.605 21.5275C208.157 21.6845 208.633 21.8417 209.035 21.9991C209.446 22.1566 209.764 22.3609 209.989 22.6123C210.214 22.8636 210.327 23.2132 210.328 23.6612C210.33 24.3519 210.07 24.894 209.549 25.2876C209.027 25.6718 208.337 25.8653 207.479 25.8679Z" fill="#263238"/>
<defs>
<linearGradient id="paint0_linear_302_680" x1="24.599" y1="36.445" x2="24.599" y2="15.5367" gradientUnits="userSpaceOnUse">
<stop stop-color="#7196FF"/>
<stop offset="1" stop-color="#2A5EE8"/>
</linearGradient>
<clipPath id="clip0_302_680">
<rect x="88.8105" y="5.42505" width="29.1892" height="29.1892" rx="14.5946" transform="rotate(-0.173721 88.8105 5.42505)" fill="white"/>
</clipPath>
<clipPath id="clip1_302_680">
<rect x="73.2432" y="5.47229" width="29.1892" height="29.1892" rx="14.5946" transform="rotate(-0.173721 73.2432 5.47229)" fill="white"/>
</clipPath>
<clipPath id="clip2_302_680">
<rect x="51.8406" y="6.51013" width="29.1892" height="29.1892" rx="14.5946" transform="rotate(-0.173721 51.8406 6.51013)" fill="white"/>
</clipPath>
<clipPath id="clip3_302_680">
<rect x="30.9233" y="7.05994" width="29.1892" height="29.1892" rx="14.5946" transform="rotate(-0.173721 30.9233 7.05994)" fill="white"/>
</clipPath>
<clipPath id="clip4_302_680">
<rect x="10.0044" y="7.12341" width="29.1892" height="29.1892" rx="14.5946" transform="rotate(-0.173721 10.0044 7.12341)" fill="white"/>
</clipPath>
</defs>
</svg>
