<svg width="201" height="228" viewBox="0 0 201 228" fill="none" xmlns="http://www.w3.org/2000/svg">
<circle cx="100.5" cy="116.5" r="100.5" fill="#23BDEE"/>
<path d="M94.5523 190V192.947H103.655V195.894H94.8797V198.819H103.655V201.679H94.5523V204.626H106.93V190H94.5523Z" fill="white"/>
<path d="M88.5922 189.671L85.143 192.561L84.974 192.517L82.8865 188.193L79.0192 187.192L82.1826 193.573L82.1438 193.765L76.8629 197.914L80.6878 198.905L84.1413 195.994L84.3103 196.038L86.3935 200.382L90.2608 201.384L87.1017 194.982L87.1362 194.811L92.4172 190.662L88.5922 189.671Z" fill="white"/>
<path d="M74.1131 182.183L71.5123 188.312L71.3782 188.239C71.803 186.292 71.0631 184.477 68.841 183.262C65.9485 181.681 63.4782 182.832 62.1224 186.027C60.7665 189.222 61.5441 192.172 64.4941 193.784C66.7544 195.02 68.4153 194.665 69.5787 192.924L69.7703 193.029L68.602 195.782L71.2647 197.237L76.9865 183.753L74.1131 182.183ZM70.5914 190.482L70.5231 190.643C69.7642 192.431 68.525 192.571 66.6669 191.556C64.8472 190.561 64.2495 189.467 65.034 187.618C65.81 185.789 66.9449 185.618 68.7838 186.623C70.5844 187.607 71.3247 188.754 70.5914 190.482Z" fill="white"/>
<path d="M55.6764 175.029L47.2673 186.996L49.6951 189.193L58.1042 177.226L55.6764 175.029Z" fill="white"/>
<path d="M43.2594 163.151C41.1132 160.096 38.019 159.536 35.4617 161.851C32.872 164.195 32.6806 167.728 34.8268 170.782C36.973 173.837 40.0511 174.411 42.6408 172.067C45.198 169.753 45.4056 166.205 43.2594 163.151ZM41.1067 165.099C42.3869 166.921 42.195 168.117 40.7707 169.406C39.3464 170.695 38.2435 170.671 36.9633 168.849C35.6957 167.045 35.9074 165.801 37.3317 164.512C38.7561 163.223 39.8391 163.295 41.1067 165.099Z" fill="white"/>
<path d="M33.5407 150.051L27.9856 153.087C26.7788 153.746 25.9803 153.588 25.409 152.242C24.8888 151.016 25.1609 150.323 26.2145 149.747L27.2106 149.203L25.9315 146.188L24.3416 147.057C22.4643 148.083 21.3816 149.814 22.3367 152.065C23.1979 154.094 24.8375 154.51 26.5085 153.943L26.5852 154.124L24.0375 155.517L25.2228 158.31L34.8198 153.065L33.5407 150.051Z" fill="white"/>
<path d="M27.416 129.909C26.7316 126.506 24.6693 124.653 22.3659 125.25L22.1334 125.31L22.7791 128.52L22.9904 128.466C23.8991 128.23 24.5185 128.768 24.9016 130.672C25.3191 132.748 24.7767 133.699 23.1667 134.207L21.4106 125.475C21.0428 125.525 20.7594 125.553 20.3791 125.652C17.0613 126.511 15.7131 129.315 16.4189 132.825C17.1291 136.356 19.7499 138.221 23.131 137.346C26.8926 136.371 28.1348 133.483 27.416 129.909ZM18.9043 132.248C18.5256 130.365 18.9662 129.35 20.3438 128.903L21.4887 134.596C20.0849 134.802 19.2874 134.153 18.9043 132.248Z" fill="white"/>
<path d="M27.3134 97.4973L20.1284 95.6362L17.8837 95.1899L17.931 94.9545L20.3178 94.6946L27.2601 93.3406L28.0435 89.4455L22.3063 84.8072L20.2553 83.3978L20.3026 83.1624L22.5 83.8441L29.685 85.7053L30.3306 82.4951L16.172 78.8276L15.2939 83.1934L21.6134 88.2528L24.6686 90.4177L24.6212 90.6531L21.0323 91.142L13.3829 92.6956L12.5091 97.04L26.6678 100.708L27.3134 97.4973Z" fill="white"/>
<path d="M34.8959 75.3136C36.3541 71.8773 35.3808 68.4984 32.3542 66.8443C29.2893 65.1693 26.374 66.4229 24.9158 69.8592C23.4576 73.2955 24.4117 76.6638 27.4766 78.3389C30.5032 79.993 33.4377 78.7499 34.8959 75.3136ZM32.3482 73.9212C31.4784 75.9709 30.4329 76.266 28.7472 75.3447C27.0615 74.4234 26.5746 73.2908 27.4443 71.2411C28.3056 69.2115 29.398 68.9173 31.0837 69.8385C32.7694 70.7598 33.2094 71.8915 32.3482 73.9212Z" fill="white"/>
<path d="M44.3204 62.9615L39.6266 58.7135C38.607 57.7907 38.4064 56.9079 39.2473 55.7112C40.0129 54.6217 40.6775 54.5803 41.5677 55.386L42.4094 56.1477L44.292 53.4685L42.9486 52.2527C41.3624 50.8172 39.5388 50.5109 38.1331 52.5113C36.8655 54.3153 37.2038 56.1701 38.3391 57.6067L38.2261 57.7674L36.0735 55.8192L34.3289 58.3019L42.4378 65.6407L44.3204 62.9615Z" fill="white"/>
<path d="M58.2564 50.928C60.8299 48.5989 61.5917 45.6887 60.2236 43.7419L60.0855 43.5454L57.6577 45.7427L57.7833 45.9213C58.3229 46.6893 58.1099 47.5542 56.6694 48.8579C55.0994 50.2788 54.1025 50.2167 53.0714 48.9L59.675 42.9235C59.494 42.5906 59.3632 42.3291 59.1373 42.0076C57.1668 39.2034 54.3232 39.264 51.6688 41.6663C48.9983 44.0833 48.4369 47.5425 50.4451 50.4003C52.6791 53.5796 55.5534 53.3742 58.2564 50.928ZM53.0887 43.8C54.513 42.511 55.5244 42.443 56.4175 43.5632L52.1122 47.4597C51.4097 46.1962 51.6482 45.1037 53.0887 43.8Z" fill="white"/>
<path d="M89.0247 33.0155L88.4694 30.2547L80.5871 32.2965L81.1423 35.0573L89.0247 33.0155Z" fill="white"/>
<path d="M121.5 40.6583L122.081 37.7691L113.268 35.4865L113.849 32.5974L122.345 34.7979L122.921 31.9301L114.426 29.7296L114.99 26.926L123.802 29.2086L124.383 26.3195L112.401 23.2158L109.517 37.5546L121.5 40.6583Z" fill="white"/>
<path d="M127.876 42.0964L131.78 40.0709L131.933 40.1546L133.048 44.9231L136.554 46.8389L134.829 39.7815L134.906 39.6007L140.826 36.7711L137.359 34.8762L133.447 36.9218L133.293 36.8381L132.187 32.0496L128.681 30.1337L130.398 37.2112L130.329 37.3719L124.409 40.2015L127.876 42.0964Z" fill="white"/>
<path d="M140.68 53.6469L144.508 48.1993L144.621 48.3018C143.792 50.1226 144.113 52.0782 145.99 53.7774C148.434 55.9893 151.061 55.4158 153.057 52.5759C155.052 49.736 154.941 46.6544 152.448 44.3985C150.538 42.67 148.862 42.6435 147.366 44.0944L147.204 43.948L148.924 41.501L146.674 39.4649L138.252 51.4496L140.68 53.6469ZM145.864 46.2703L145.964 46.1274C147.081 44.5378 148.304 44.6808 149.874 46.1016C151.412 47.4932 151.751 48.7061 150.597 50.3493C149.455 51.9747 148.325 51.887 146.771 50.4808C145.249 49.1039 144.784 47.8063 145.864 46.2703Z" fill="white"/>
<path d="M157.874 64.5217L168.718 54.7073L166.835 52.0281L155.991 61.8425L157.874 64.5217Z" fill="white"/>
<path d="M168.135 79.8675C169.593 83.3038 172.528 84.5469 175.554 82.8928C178.619 81.2178 179.573 77.8494 178.115 74.4131C176.657 70.9768 173.741 69.7232 170.677 71.3982C167.65 73.0524 166.677 76.4312 168.135 79.8675ZM170.683 78.4751C169.813 76.4254 170.261 75.3137 171.947 74.3925C173.633 73.4712 174.717 73.7453 175.586 75.795C176.448 77.8247 175.969 78.9773 174.284 79.8986C172.598 80.8199 171.544 80.5047 170.683 78.4751Z" fill="white"/>
<path d="M173.468 95.9239L179.596 94.3364C180.928 93.9916 181.686 94.3355 181.974 95.7694C182.237 97.0749 181.824 97.6771 180.662 97.9781L179.563 98.2628L180.209 101.473L181.963 101.019C184.034 100.482 185.463 99.0763 184.981 96.6793C184.546 94.5178 183.008 93.7229 181.236 93.8667L181.197 93.6741L184.008 92.946L183.41 89.9713L172.822 92.7137L173.468 95.9239Z" fill="white"/>
<path d="M175.782 117.064C175.782 120.535 177.441 122.849 179.82 122.849H180.06V119.574H179.842C178.903 119.574 178.401 118.898 178.401 116.955C178.401 114.837 179.122 114.051 180.803 113.964V122.871C181.174 122.914 181.457 122.958 181.85 122.958C185.278 122.958 187.155 120.579 187.155 116.998C187.155 113.397 184.95 110.93 181.457 110.93C177.572 110.93 175.782 113.418 175.782 117.064ZM184.601 116.933C184.601 118.854 183.968 119.727 182.527 119.815V114.008C183.946 114.161 184.601 114.99 184.601 116.933Z" fill="white"/>
<path d="M168.484 147.864L174.997 151.424L177.06 152.402L176.966 152.623L174.622 152.308L167.681 151.98L166.129 155.638L170.682 161.592L172.361 163.475L172.267 163.696L170.299 162.496L163.786 158.937L162.507 161.951L175.341 168.965L177.08 164.866L172.055 158.356L169.568 155.487L169.662 155.266L173.206 155.644L180.867 155.943L182.598 151.864L169.763 144.85L168.484 147.864Z" fill="white"/>
<path d="M155.52 166.45C153.374 169.505 153.582 173.053 156.139 175.367C158.729 177.711 161.807 177.136 163.953 174.082C166.099 171.028 165.908 167.495 163.318 165.151C160.761 162.836 157.667 163.396 155.52 166.45ZM157.673 168.399C158.953 166.577 160.024 166.523 161.448 167.812C162.872 169.101 163.097 170.327 161.816 172.149C160.549 173.953 159.433 173.995 158.009 172.706C156.585 171.417 156.405 170.203 157.673 168.399Z" fill="white"/>
<path d="M144.43 175.926L148.07 181.105C148.861 182.231 148.861 183.136 147.777 184.117C146.79 185.011 146.132 184.905 145.442 183.922L144.789 182.993L142.361 185.191L143.403 186.673C144.633 188.423 146.344 189.125 148.157 187.484C149.792 186.005 149.871 184.121 149.081 182.469L149.227 182.337L150.896 184.713L153.146 182.677L146.858 173.728L144.43 175.926Z" fill="white"/>
<path d="M129.274 184.892C126.229 186.557 124.846 189.194 125.776 191.384L125.869 191.605L128.743 190.035L128.657 189.834C128.291 188.97 128.688 188.183 130.393 187.251C132.251 186.236 133.222 186.522 133.956 188.028L126.14 192.299C126.247 192.662 126.319 192.944 126.473 193.305C127.812 196.46 130.633 197.048 133.774 195.331C136.935 193.603 138.238 190.391 136.874 187.175C135.356 183.598 132.473 183.144 129.274 184.892ZM132.834 192.948C131.149 193.869 130.135 193.705 129.496 192.421L134.591 189.636C135.011 191.016 134.539 192.016 132.834 192.948Z" fill="white"/>
<path d="M126.522 112.605C130.29 114.781 130.29 120.219 126.522 122.395L94.7283 140.751C90.9601 142.926 86.25 140.207 86.25 135.856L86.25 99.144C86.25 94.793 90.9601 92.0736 94.7283 94.2491L126.522 112.605Z" fill="white"/>
</svg>
