<svg width="225" height="42" viewBox="0 0 225 42" fill="none" xmlns="http://www.w3.org/2000/svg">
<rect y="0.336548" width="225.001" height="40.9759" rx="20.4879" fill="#FAFAFA"/>
<g clip-path="url(#clip0_302_653)">
<rect x="88.8103" y="5.42505" width="29.1892" height="29.1892" rx="14.5946" transform="rotate(-0.173721 88.8103 5.42505)" fill="#FFE75C"/>
<path d="M111.305 35.0291C111.41 35.4506 111.418 35.8906 111.328 36.3156C111.238 36.7407 111.052 37.1396 110.785 37.4825C110.518 37.8252 110.177 38.1029 109.787 38.2942C109.397 38.4855 108.969 38.5856 108.534 38.587L102.598 38.605L99.8209 40.1701L99.8206 40.0871C98.5545 40.091 97.8269 39.678 98.3733 35.0268C98.1202 33.7199 96.9422 28.5758 96.2871 24.7378C95.6953 21.2316 96.9991 19.9408 100.605 17.8957C102.127 13.3245 106.113 13.5823 106.889 16.3198C107.665 19.0574 110.233 30.6942 111.305 35.0291Z" fill="#66BCFF"/>
<path d="M111.304 35.029C110.758 32.789 109.791 28.6405 108.886 24.7617L104.236 24.423L100.653 26.9662L98.5854 29.7539L97.5312 31.1893C97.9102 32.9732 98.2258 34.4252 98.3522 35.0476C97.8059 39.6988 98.5336 40.1117 99.7998 40.1078L103.469 38.54L111.978 37.9122C111.767 36.9788 111.536 36.0039 111.304 35.029Z" fill="#EB459F"/>
<path d="M101.785 32.7213C102.042 31.172 101.902 29.8581 101.472 29.7868C101.042 29.7154 100.486 30.9135 100.228 32.463C99.9711 34.0122 100.111 35.3259 100.541 35.3973C100.97 35.4686 101.527 34.2705 101.785 32.7213Z" fill="black"/>
<path d="M99.0601 28.8806C99.2666 28.5064 99.494 28.1321 99.7213 27.7993C102.057 24.4088 104.254 23.4889 106.371 23.4824L109.007 23.4744C109.046 23.4754 109.085 23.4856 109.12 23.5042C109.154 23.5228 109.184 23.5495 109.206 23.5818C109.229 23.6141 109.243 23.6512 109.248 23.6902C109.254 23.7292 109.25 23.7689 109.237 23.8059L108.886 24.7617C104.839 24.774 103.406 24.6538 100.054 28.1926L98.5856 29.7539L99.0601 28.8806Z" fill="#D11583"/>
<path d="M100.055 28.3173C98.6648 28.5706 97.5669 29.3004 96.9481 30.5892C96.7723 30.9467 96.518 31.2597 96.2036 31.5047L92.4757 34.2352C92.0567 34.5345 91.7654 34.9802 91.6592 35.4841C91.5532 35.988 91.6401 36.5133 91.9027 36.9561C92.0859 37.2669 92.3476 37.5239 92.6614 37.7014C92.9753 37.879 93.3304 37.9709 93.6909 37.9677L95.2476 37.963C98.4802 36.1474 99.971 34.9182 100.737 34.2101C101.503 33.5021 102.35 32.2333 102.2 30.7808C102.05 29.3283 101.631 28.0219 100.055 28.3173Z" fill="white"/>
<path d="M101.185 17.5826C100.684 16.7539 100.016 15.6558 99.7656 15.1376C99.515 14.6194 98.9134 14.7458 99.7715 17.068C97.6934 16.2855 97.2584 16.5774 97.1555 16.8683C97.0526 17.1592 97.5097 17.3032 98.383 17.7987C99.2563 18.2942 100.192 18.8933 100.192 18.8933L101.185 17.5826Z" fill="#66BCFF"/>
<path d="M103.343 17.6383C103.695 17.2014 103.818 16.7236 103.61 16.5581C103.402 16.3927 103.174 16.4764 102.864 16.8925C102.73 17.0617 102.585 17.2217 102.429 17.3712C102.077 17.7044 102.161 17.9532 102.328 18.098C102.494 18.2428 102.992 18.0753 103.343 17.6383Z" fill="black"/>
<path d="M106.868 16.3406C106.868 16.3406 104.395 15.2273 103.334 14.5455C102.273 13.8638 101.731 12.8483 102.207 12.577C102.684 12.3057 103.599 12.9464 104.245 13.7747C104.22 12.3011 104.468 11.989 104.862 11.967C105.257 11.9451 105.3 12.5261 105.323 13.3563C105.346 14.1865 105.493 14.5182 106.117 15.0768C106.491 15.4113 106.753 15.8524 106.868 16.3406Z" fill="#3442D9"/>
<path d="M97.8187 23.2593C97.2375 23.2611 96.7378 22.7644 97.1918 21.8913C97.6458 21.0181 99.1374 20.1418 99.8629 19.8075C100.588 19.4732 100.922 19.8043 100.943 20.0533C100.965 20.3023 100.862 20.6762 100.345 21.342C99.8281 22.0078 98.8772 23.2561 97.8187 23.2593Z" fill="white"/>
<path d="M98.2749 23.1957L97.9225 23.2591L97.4192 21.5585L97.7088 21.2463L98.2749 23.1957Z" fill="#8CD9FF"/>
<path d="M99.559 22.2785L99.2695 22.5699L98.6818 20.4753L98.9925 20.2668L99.559 22.2785Z" fill="#8CD9FF"/>
<path d="M100.717 20.822L100.448 21.1965L100.029 19.7448L100.381 19.6814L100.717 20.822Z" fill="#8CD9FF"/>
<path d="M100.256 19.495C100.641 19.6773 101.037 19.8357 101.441 19.9688" stroke="black" stroke-linecap="round" stroke-linejoin="round"/>
<path d="M109.538 27.4997C109.14 27.1858 108.653 27.0057 108.146 26.985C107.067 26.9883 106.468 28.0487 106.264 29.0664C106.231 29.2297 106.143 29.3765 106.015 29.4827C105.887 29.589 105.726 29.6478 105.56 29.6497L105.414 29.6502C105.321 29.6332 105.231 29.5976 105.152 29.5451C105.072 29.4928 105.004 29.425 104.952 29.3456C104.899 29.2663 104.863 29.1771 104.846 29.0836C104.828 28.9898 104.83 28.8937 104.851 28.8009C105.24 26.8278 106.523 25.5577 108.142 25.5528C108.41 25.5553 108.669 25.6488 108.877 25.8179C109.085 25.9869 109.229 26.2216 109.286 26.4834L109.538 27.4997Z" fill="white"/>
<path d="M111.305 35.0291C111.351 35.2145 111.359 35.4075 111.329 35.5961C111.298 35.7849 111.23 35.9654 111.127 36.1268C111.025 36.2882 110.891 36.4271 110.733 36.5351C110.575 36.6433 110.397 36.7181 110.21 36.7552L109.691 36.7983C108.508 36.8019 107.281 36.0999 106.323 34.8781C106.265 34.8019 106.223 34.7153 106.199 34.623C106.175 34.5305 106.17 34.4344 106.183 34.3399C106.196 34.2454 106.228 34.1544 106.276 34.0723C106.325 33.9899 106.389 33.9181 106.465 33.8606C106.54 33.8004 106.627 33.7561 106.719 33.7305C106.812 33.7051 106.909 33.6988 107.004 33.712C107.1 33.7254 107.191 33.7579 107.273 33.8081C107.356 33.8581 107.427 33.9243 107.482 34.0028C108.149 34.8518 108.96 35.3683 109.687 35.3661C110.413 35.3639 110.848 34.9474 111.158 34.4068C111.2 34.635 111.263 34.8424 111.305 35.0291Z" fill="#2331B5"/>
<path d="M109.896 29.097C109.749 29.0983 109.607 29.145 109.488 29.2309C109.369 29.3167 109.28 29.4376 109.233 29.5764L108.368 31.9245C108.293 32.145 108.295 32.3847 108.375 32.6037C108.455 32.8226 108.608 33.0073 108.808 33.1271C108.898 33.1823 109 33.2166 109.106 33.2271C109.211 33.2378 109.317 33.2244 109.417 33.1882C109.517 33.1519 109.607 33.0938 109.681 33.018C109.755 32.9422 109.811 32.8507 109.845 32.7503L110.401 31.2334C110.253 30.5489 110.085 29.8437 109.896 29.097Z" fill="#5865F2"/>
<path d="M108.808 33.127C108.608 33.0072 108.455 32.8225 108.375 32.6036C108.295 32.3846 108.293 32.1449 108.368 31.9244L108.615 31.2802C108.657 31.1678 108.722 31.0657 108.807 30.9808C108.891 30.896 108.993 30.8305 109.105 30.7887C109.218 30.747 109.338 30.7301 109.457 30.739C109.577 30.748 109.693 30.7827 109.797 30.8408C109.968 30.9401 110.1 31.0956 110.168 31.2811C110.237 31.4665 110.239 31.6699 110.174 31.8567L109.845 32.7502C109.811 32.8506 109.755 32.9421 109.681 33.0179C109.607 33.0937 109.517 33.1518 109.417 33.1881C109.317 33.2243 109.211 33.2377 109.105 33.227C109 33.2165 108.898 33.1824 108.808 33.127Z" fill="#FFE75C"/>
</g>
<g clip-path="url(#clip1_302_653)">
<rect x="73.2429" y="5.47229" width="29.1892" height="29.1892" rx="14.5946" transform="rotate(-0.173721 73.2429 5.47229)" fill="#3442D9"/>
<path d="M79.7533 16.9235C78.8937 14.1031 78.433 12.7553 79.9665 11.9204C81.4999 11.0855 86.1719 11.6318 88.3529 12.1441C90.5339 12.6564 90.8469 13.1951 89.4212 15.3374L79.7533 16.9235Z" fill="#FFF4B3"/>
<path d="M78.8339 42.312C78.4763 33.9273 78.6628 26.9524 78.9213 23.2362C77.5279 22.3271 76.8823 21.6233 76.6112 21.2297C76.555 21.1539 76.526 21.0613 76.5297 20.9668C76.5331 20.8726 76.5686 20.7822 76.6304 20.7108C78.8223 17.9435 80.7038 15.53 82.6723 14.4031C84.6408 13.2763 87.3383 12.9775 91.6479 17.2404C91.6891 17.295 91.7097 17.3624 91.7061 17.4307C91.7026 17.4992 91.675 17.5641 91.6282 17.614C91.288 17.9538 90.9287 18.2737 90.5518 18.5721C91.4283 20.1262 92.7016 22.4886 92.7016 22.4886L93.6979 22.4856C94.3364 22.4837 94.9497 22.7355 95.4025 23.1858C95.8556 23.6359 96.1111 24.2474 96.113 24.8861C96.1396 26.8164 95.69 29.1425 94.8065 32.1342C98.8016 35.3602 97.8469 42.2336 97.8469 42.2336L78.8339 42.312Z" fill="#29CC7A"/>
<path d="M94.8067 32.1341C94.9299 31.6978 95.0532 31.3031 95.1558 30.8876L92.0268 32.6407C92.0268 32.6407 87.0558 29.3139 78.7261 27.2635C78.5925 31.1246 78.5876 36.3554 78.834 42.3119L97.8471 42.2542C97.8471 42.2542 98.8018 35.36 94.8067 32.1341Z" fill="#8CD9FF"/>
<path d="M95.5977 32.8998C95.3549 32.6238 95.0903 32.3679 94.8067 32.1342C94.9299 31.6979 95.0532 31.3031 95.1557 30.8877L92.0268 32.6408C92.0268 32.6408 87.0558 29.314 78.7261 27.2635C78.7068 27.741 78.6876 28.26 78.6892 28.7789C85.0695 31.3957 88.508 35.9103 88.9217 42.2814L93.6335 42.2671C94.4527 38.6114 95.1072 35.4128 95.5977 32.8998Z" fill="#BAE8FF"/>
<path d="M81.2303 24.8274L81.3134 24.8271C81.3548 24.7855 81.3962 24.7646 81.4168 24.7022L83.2049 18.8641C83.2169 18.8396 83.2237 18.8128 83.2242 18.7854C83.2247 18.7582 83.2195 18.7311 83.2084 18.7062C83.1975 18.6811 83.1811 18.6587 83.1607 18.6407C83.1401 18.6227 83.1159 18.6095 83.0896 18.6019C83.0634 18.5943 83.0358 18.5925 83.0088 18.5966C82.9818 18.6008 82.9561 18.6108 82.9333 18.6261C82.9107 18.6413 82.8917 18.6613 82.8775 18.6848C82.8634 18.7081 82.8546 18.7342 82.8517 18.7614L81.1253 24.4125C80.3711 24.0935 79.6474 23.7065 78.9631 23.2567L78.9216 23.2568C78.922 23.3814 78.9016 23.5267 78.902 23.6513C79.6206 24.1105 80.379 24.5043 81.1681 24.8275L81.2303 24.8274Z" fill="black"/>
<path d="M88.9233 15.4219L81.4941 15.9841C89.8015 17.5365 90.1551 17.7637 88.9233 15.4219Z" fill="black"/>
<path d="M87.0826 20.8266C87.3691 20.7099 87.4191 20.1676 87.1941 19.6155C86.9691 19.0636 86.5545 18.7108 86.2678 18.8275C85.9811 18.9444 85.9313 19.4865 86.1563 20.0385C86.3811 20.5906 86.7959 20.9435 87.0826 20.8266Z" fill="black"/>
<path d="M89.2258 21.9677C89.5938 21.2675 89.5467 20.5183 89.1205 20.2944C88.6943 20.0702 88.0506 20.4564 87.6824 21.1564C87.3144 21.8566 87.3617 22.6058 87.7877 22.8299C88.2139 23.0538 88.8579 22.6679 89.2258 21.9677Z" stroke="white" stroke-miterlimit="10"/>
<path d="M92.2823 21.9626C92.6503 21.2626 92.6032 20.5134 92.177 20.2893C91.7508 20.0654 91.1071 20.4513 90.7391 21.1515C90.3711 21.8517 90.4182 22.6009 90.8444 22.8248C91.2706 23.0488 91.9144 22.6628 92.2823 21.9626Z" stroke="white" stroke-miterlimit="10"/>
<path d="M90.1792 20.7169C90.3703 20.6391 90.3499 20.1458 90.1335 19.6149C89.9173 19.0841 89.587 18.7169 89.3958 18.7949C89.2049 18.8727 89.2253 19.366 89.4415 19.897C89.6579 20.4277 89.9883 20.7949 90.1792 20.7169Z" fill="black"/>
<path d="M92.1732 26.1434C90.5706 26.1534 89.0138 25.6081 87.768 24.6C86.4779 23.5453 86.9964 23.4192 87.8059 23.396C88.6153 23.3728 92.4973 23.5063 93.6186 23.6689C94.74 23.8316 94.9543 26.0519 92.1732 26.1434Z" fill="#912869"/>
<path d="M92.1732 26.1434C90.5706 26.1534 89.0138 25.6081 87.768 24.6C86.4779 23.5453 86.9964 23.4192 87.8059 23.396C88.6153 23.3728 92.4973 23.5063 93.6186 23.6689C94.74 23.8316 94.9543 26.0519 92.1732 26.1434Z" fill="#611B46"/>
<path d="M92.0971 28.4684L92.0117 27.7007C92.5979 27.6522 93.1689 27.4881 93.6915 27.2182" stroke="black" stroke-linecap="round" stroke-linejoin="round"/>
<path d="M92.9408 26.0373C91.8167 24.9613 90.299 24.1564 87.4974 24.3517C89.9119 26.5654 92.4223 26.1842 92.9408 26.0373Z" fill="#EB459F"/>
<path d="M89.3562 21.2325L90.6224 21.2287" stroke="white" stroke-miterlimit="10"/>
<path d="M87.4473 21.4873L82.0855 19.3241C81.973 19.2809 81.8518 19.2657 81.7322 19.2793C81.6125 19.2932 81.4981 19.3357 81.3982 19.4032C81.2986 19.4708 81.2167 19.5615 81.1597 19.6675C81.1025 19.7736 81.072 19.8918 81.0705 20.0122C81.0684 20.1539 81.1091 20.2929 81.1873 20.4112C81.2653 20.5293 81.3772 20.6213 81.5084 20.6751L81.8617 20.84" stroke="white" stroke-miterlimit="10" stroke-linecap="round"/>
<path d="M86.3181 18.7716C86.7393 18.7812 87.1597 18.7238 87.563 18.6018" stroke="black" stroke-miterlimit="10" stroke-linecap="round"/>
<path d="M89.4317 18.7622C89.6972 18.7683 89.9604 18.7106 90.1991 18.5939" stroke="black" stroke-miterlimit="10" stroke-linecap="round"/>
<path d="M80.4569 16.1948C87.8667 16.0686 90.3757 15.2307 92.4906 14.4563C94.6054 13.6818 94.3961 13.0805 92.7772 13.1477C91.1584 13.2149 85.6228 15.3489 80.4569 16.1948Z" fill="#FFF4B3"/>
<path d="M80.4568 16.1948L82.9885 15.9796L89.0666 14.7572L87.5468 13.2673L80.3027 13.2893L80.4568 16.1948Z" fill="#FFF4B3"/>
<path d="M92.7472 23.8168L91.2939 23.7382C91.4626 24.6094 91.8792 25.0648 92.2316 24.9185C92.584 24.7721 92.7062 24.0037 92.7472 23.8168Z" fill="white"/>
<path d="M88.2632 23.6436C88.453 24.6393 88.8282 25.1571 89.1806 24.99C89.5329 24.8228 89.6134 23.9923 89.6747 23.66L88.2632 23.6436Z" fill="white"/>
<path d="M89.9148 13.7791C86.7182 14.6459 83.4776 15.3417 80.2069 15.8635" stroke="#FFC619" stroke-width="2" stroke-miterlimit="10" stroke-linecap="round"/>
</g>
<g clip-path="url(#clip2_302_653)">
<rect x="51.8406" y="6.51013" width="29.1892" height="29.1892" rx="14.5946" transform="rotate(-0.173721 51.8406 6.51013)" fill="#7196FF"/>
<path d="M62.8167 31.4274L62.1775 32.0651L66.8477 36.6679L67.4871 36.0301L62.8167 31.4274Z" fill="#2E3338"/>
<path d="M65.728 31.4254L65.0886 32.0631L69.7588 36.6658L70.3982 36.0281L65.728 31.4254Z" fill="#2E3338"/>
<path d="M70.9708 30.6105C72.173 29.4057 72.9144 27.8234 73.0676 26.1355C73.2208 24.4476 72.7762 22.7595 71.8104 21.3615L68.7806 16.9721L65.2121 16.983L65.2291 22.5934C65.2306 23.0808 65.0367 23.5487 64.6902 23.8944C64.3437 24.24 63.8729 24.435 63.3813 24.4365L57.6442 24.4539L57.648 25.7246C57.6537 27.5929 58.4063 29.3826 59.7408 30.7015C61.0752 32.0204 62.8828 32.7607 64.767 32.7601L65.8119 32.7569C67.7478 32.7349 69.5987 31.9649 70.9708 30.6105Z" fill="#FFD836"/>
<path d="M68.7744 14.9198C69.7208 14.917 70.6296 15.287 71.3008 15.9485C71.972 16.6101 72.3507 17.5089 72.3536 18.4473L72.3564 19.3661L65.2193 19.3877L65.2165 18.4494C65.2189 17.5144 65.5945 16.6183 66.2612 15.9569C66.9278 15.2955 67.8314 14.9227 68.7744 14.9198Z" fill="#FFD836"/>
<path d="M73.3973 18.0531C73.5696 18.221 73.7058 18.4217 73.7979 18.6431C73.8901 18.8645 73.9363 19.1021 73.9335 19.3417L70.5227 19.352C70.396 19.3499 70.2725 19.3111 70.1678 19.2403C70.0629 19.1696 69.9812 19.0701 69.9327 18.9539C69.8842 18.8377 69.8709 18.7101 69.8946 18.5865C69.9183 18.463 69.9778 18.3491 70.0659 18.2587L70.754 17.5724L70.751 16.5949C70.7505 16.4687 70.7993 16.3471 70.8872 16.2557C70.9752 16.1643 71.0954 16.1102 71.2226 16.1048C71.3526 16.1114 71.4771 16.1589 71.5779 16.2406L73.3973 18.0531Z" fill="#FF9A15"/>
<path d="M68.7744 14.9196L67.7294 14.9228C66.4433 14.9251 65.2085 14.4228 64.2947 13.5257L63.7803 12.9603L63.7813 13.3122C63.7848 14.4528 64.2451 15.5453 65.061 16.3494C65.8768 17.1535 66.9814 17.6032 68.1318 17.5997L68.7627 17.5978L68.7744 14.9196Z" fill="#FFD836"/>
<path d="M63.7122 16.538L66.5708 16.5293L66.5794 19.3638L63.7122 16.538Z" fill="#FFD836"/>
<path d="M59.3086 27.1858C59.8451 28.3134 60.7992 29.1926 61.9725 29.6408C63.1459 30.089 64.4483 30.0719 65.6092 29.5927C66.7701 29.1136 67.7003 28.2094 68.2064 27.0681C68.7125 25.9267 68.7557 24.6359 68.327 23.4638L59.3086 27.1858Z" fill="#FF9A15"/>
<path d="M54.4802 21.3358L56.7151 23.6358C57.0084 23.9212 57.2419 24.2614 57.4021 24.6366C57.5624 25.012 57.6461 25.4149 57.6484 25.8224L59.2453 25.8176L59.242 24.7034C59.2382 24.0807 59.0264 23.4769 58.6396 22.9864C58.2528 22.4958 57.713 22.1464 57.1044 21.9926L54.4802 21.3358Z" fill="#FFD836"/>
<path d="M58.6912 25.1547L58.5143 25.331C58.4417 25.4005 58.3501 25.4472 58.2509 25.4653C58.1517 25.4833 58.0493 25.4721 57.9566 25.4327C57.8638 25.3933 57.7849 25.3276 57.7296 25.244C57.6743 25.1603 57.6451 25.0623 57.6457 24.9622L57.6301 19.821L58.6782 20.854C59.2483 21.4262 59.569 22.1972 59.5715 23.0016C59.5739 23.8059 59.2578 24.5791 58.6912 25.1547Z" fill="#FFD836"/>
<path d="M68.9992 17.5972C69.2497 17.5964 69.4521 17.3945 69.4513 17.1462C69.4506 16.8979 69.2469 16.6972 68.9965 16.698C68.746 16.6987 68.5436 16.9006 68.5443 17.149C68.5451 17.3973 68.7487 17.598 68.9992 17.5972Z" fill="#202225"/>
</g>
<g clip-path="url(#clip3_302_653)">
<rect x="30.9233" y="7.05994" width="29.1892" height="29.1892" rx="14.5946" transform="rotate(-0.173721 30.9233 7.05994)" fill="#FF78B9"/>
<path d="M54.7228 41.2958C55.7084 39.213 53.0384 35.8829 48.7588 33.8576C44.4794 31.8322 40.2111 31.8788 39.2255 33.9616C38.2398 36.0442 40.9099 39.3745 45.1895 41.3998C49.4688 43.425 53.7371 43.3784 54.7228 41.2958Z" fill="black"/>
<path d="M55.2417 29.7781C53.9731 28.9932 53.9109 29.0142 53.2013 27.7502C52.4918 26.4861 51.5974 25.8661 50.5591 25.724L51.8742 35.0398C54.575 35.8204 56.2314 34.4454 56.6009 33.0951C56.9704 31.7448 56.531 30.563 55.2417 29.7781Z" fill="#3442D9"/>
<path d="M53.9794 31.0065C53.6219 29.4924 52.6825 27.7309 51.5784 26.4058C51.1828 25.9271 50.9015 25.3644 50.7558 24.7606C50.6101 24.1568 50.6038 23.5278 50.7375 22.9212L51.1879 20.8442C51.5046 19.4025 51.3288 17.8964 50.689 16.5664C50.049 15.2363 48.9817 14.1592 47.6577 13.5069C46.898 13.1357 46.0716 12.9195 45.2273 12.8708C43.6384 12.7593 42.0687 13.2713 40.8511 14.298C39.6335 15.3248 38.8639 16.7856 38.7055 18.3704C38.6719 18.6389 38.6588 18.9096 38.6665 19.1801L38.6692 20.0726L38.722 23.8087C38.7722 25.4871 38.4214 27.1531 37.6989 28.6689C37.3989 29.2703 37.1711 29.9051 37.0197 30.5598L47.2024 41.3225C52.0362 40.4983 55.0526 35.8189 53.9794 31.0065Z" fill="#3442D9"/>
<path d="M47.223 41.3224C52.0361 40.4983 55.0524 35.8189 53.9792 31.0065C53.6427 29.5753 52.7867 27.9174 51.7657 26.6336" stroke="black" stroke-miterlimit="10" stroke-linecap="round"/>
<path d="M50.7421 31.3278C51.6921 29.7474 52.0664 29.9538 53.7698 30.4053C55.1408 30.754 56.7268 33.5514 54.6347 34.9692C52.5425 36.387 48.2641 35.5489 50.7421 31.3278Z" fill="#3442D9"/>
<path d="M45.9961 26.6899C46.187 26.543 46.2169 26.2621 46.0631 26.062C45.9093 25.8622 45.63 25.8192 45.4393 25.966C45.2485 26.1129 45.2185 26.3938 45.3723 26.5936C45.526 26.7937 45.8054 26.8366 45.9961 26.6899Z" fill="black"/>
<path d="M48.6113 26.8442C48.802 26.6975 48.8321 26.4164 48.6783 26.2165C48.5245 26.0167 48.2452 25.9735 48.0543 26.1205C47.8635 26.2672 47.8334 26.5483 47.9872 26.7481C48.141 26.948 48.4203 26.9911 48.6113 26.8442Z" fill="black"/>
<path d="M48.3406 26.5194C50.5671 28.3393 49.6577 29.6497 51.451 32.3427" stroke="white" stroke-miterlimit="10" stroke-linecap="round"/>
<path d="M45.8416 30.6161C47.2086 29.6571 47.6229 29.386 48.1419 29.4052L49.4915 29.5257L49.1552 35.0065L45.7301 34.9131L45.8416 30.6161Z" fill="#FFC619"/>
<path d="M52.4792 29.2052C52.505 29.1327 52.5132 29.055 52.5039 28.9787C52.4945 28.9023 52.4675 28.8291 52.4252 28.7649C52.3826 28.7007 52.326 28.6471 52.2595 28.6085C52.1927 28.5699 52.1182 28.5473 52.0413 28.5423L49.7571 28.2171C49.5914 28.2 49.4246 28.2403 49.2852 28.3315C49.1456 28.4226 49.0416 28.5589 48.9906 28.7176L47.7182 33.4955C47.6927 33.5683 47.6842 33.6457 47.6935 33.7221C47.7029 33.7984 47.7299 33.8716 47.7722 33.9358C47.8148 34.0001 47.8714 34.0537 47.9381 34.0923C48.0047 34.1309 48.0793 34.1535 48.1561 34.1584L50.4403 34.4836C50.6062 34.5008 50.7728 34.4604 50.9124 34.3693C51.0518 34.2781 51.1558 34.1419 51.2068 33.9831L52.4792 29.2052Z" fill="black"/>
<path d="M52.3741 28.7282L52.6241 29.018L51.9393 29.0824L52.3741 28.7282Z" fill="black"/>
<path d="M53.5045 31.8797C53.2124 31.4031 52.9408 30.802 52.1516 30.6799L52.0509 31.6765L53.5045 31.8797Z" fill="#FFC619"/>
<path d="M52.7086 29.4745C52.7302 29.402 52.7356 29.3256 52.7243 29.2507C52.7131 29.1758 52.6857 29.1042 52.644 29.041C52.6023 28.9779 52.5473 28.9247 52.4829 28.885C52.4184 28.8454 52.3459 28.8203 52.2707 28.8116L49.9657 28.4864C49.8007 28.473 49.6356 28.5151 49.497 28.6056C49.3582 28.6963 49.2533 28.8303 49.1992 28.9869L47.9268 33.7649C47.9052 33.8374 47.8998 33.9138 47.9111 33.9887C47.9223 34.0636 47.9497 34.1351 47.9914 34.1983C48.0331 34.2615 48.0881 34.3149 48.1525 34.3543C48.2172 34.394 48.2895 34.4191 48.3647 34.4278L50.6696 34.7321C50.8312 34.7582 50.9967 34.7235 51.1343 34.635C51.2718 34.5464 51.3721 34.4103 51.4154 34.2525L52.7086 29.4745Z" fill="white"/>
<path d="M52.0085 31.3654L52.9429 31.5079C53.1323 31.5283 53.3059 31.6222 53.4267 31.7692C53.5476 31.9164 53.6057 32.1051 53.5888 32.2947C53.5843 32.3933 53.5593 32.4899 53.5153 32.5782C53.4712 32.6664 53.4092 32.7446 53.3332 32.8073C53.257 32.8702 53.1687 32.9164 53.0735 32.9428C52.9785 32.9695 52.8789 32.9758 52.7813 32.9613L52.096 32.8596C51.8832 32.8298 51.6861 32.7303 51.5353 32.577C51.3848 32.4234 51.2891 32.2246 51.2632 32.0111C51.2577 31.9161 51.2742 31.821 51.3113 31.7332C51.3484 31.6455 51.4052 31.5675 51.4771 31.505C51.5491 31.4428 51.6345 31.3977 51.7266 31.3735C51.8187 31.3494 51.9152 31.3466 52.0085 31.3654Z" fill="#FFC619"/>
<path d="M51.7014 32.7569L52.3451 32.8587C52.4529 32.8721 52.5564 32.9085 52.6485 32.9658C52.7406 33.023 52.8191 33.0997 52.8786 33.1903C52.9382 33.281 52.9773 33.3836 52.9932 33.4909C53.0091 33.5982 53.0013 33.7076 52.9707 33.8117C52.927 33.9791 52.8216 34.1239 52.6755 34.2167C52.5295 34.3095 52.3538 34.3437 52.1835 34.3122L51.7889 34.2511C51.5736 34.2221 51.3736 34.1235 51.2195 33.9704C51.0655 33.8172 50.9657 33.6178 50.9353 33.4027C50.929 33.3054 50.9457 33.2082 50.9839 33.1184C51.0222 33.0288 51.0809 32.9493 51.1554 32.8864C51.23 32.8237 51.3181 32.7792 51.413 32.7567C51.5078 32.7342 51.6066 32.7344 51.7014 32.7569Z" fill="#FFC619"/>
<path d="M49.6951 35.1293L47.4525 34.8248L47.5535 33.9112L49.7962 34.2365L49.6951 35.1293Z" fill="#FFC619"/>
<path d="M50.2237 31.4954L48.8116 31.2921C48.7444 31.2831 48.6812 31.2549 48.6294 31.211C48.5777 31.167 48.5398 31.109 48.5203 31.0439L48.3946 30.6706L48.2885 29.9029L47.5287 32.6036L49.8129 32.9288C50.0256 32.9566 50.2413 32.912 50.4255 32.8022C50.6097 32.6925 50.7516 32.5241 50.8282 32.3238C50.8526 32.2289 50.8556 32.1296 50.8373 32.0334C50.8187 31.9371 50.7792 31.8461 50.7215 31.767C50.6637 31.6877 50.589 31.6223 50.5031 31.5755C50.4171 31.5284 50.3217 31.5011 50.2237 31.4954Z" fill="#FFC619"/>
<path d="M49.7715 32.9082L47.5288 32.6036L47.6371 34.0978L49.3607 34.3417C49.571 34.3724 49.7853 34.3285 49.9668 34.2182C50.1483 34.1078 50.2856 33.9374 50.3552 33.7367C50.3833 33.6432 50.3899 33.5446 50.3744 33.4481C50.3588 33.3516 50.3213 33.2602 50.2653 33.1803C50.209 33.1005 50.1353 33.0345 50.0496 32.9873C49.9642 32.9402 49.869 32.9131 49.7715 32.9082Z" fill="#FFC619"/>
<path d="M65.6988 42.0136C65.7542 39.7717 63.9058 39.4245 62.6373 38.6396C61.3687 37.8546 59.8692 36.1986 58.3091 35.0825C56.7489 33.9664 55.3998 33.9912 52.7662 34.8087L55.7936 40.653C57.4983 41.5196 57.8748 42.4733 58.792 43.7574C59.7092 45.0415 60.9354 45.536 62.1593 45.304C62.806 46.3606 62.9313 46.6093 63.8643 46.2744C64.7974 45.9394 66.3312 45.229 66.7426 44.0031C67.1541 42.7772 66.5515 42.5715 65.6988 42.0136Z" fill="#66BCFF"/>
<path d="M55.6586 37.2077C55.3823 38.0996 55.2043 39.0189 55.1272 39.9492" stroke="black" stroke-width="2" stroke-miterlimit="10" stroke-linecap="round"/>
<path d="M56.916 47.9975C55.0323 49.7052 53.4326 49.2327 52.6851 49.1519C51.9376 49.0712 52.019 48.5312 51.9553 48.0748C51.8917 47.6183 51.8481 46.9335 51.8481 46.9335C49.9588 46.8147 49.7266 45.5284 49.6816 44.387C49.6367 43.2455 49.3456 43.0803 49.1978 42.2712C46.9191 41.869 44.7639 40.9477 42.8987 39.5782C41.0334 38.209 39.5089 36.4283 38.4426 34.3747L40.4101 32.9365L44.8192 35.7876C47.7841 34.6785 49.4222 34.1131 51.0201 34.0045C52.6181 33.8958 54.1974 34.493 54.723 36.7124C55.2487 38.9318 55.313 39.6166 55.7936 40.6737C55.919 40.9432 56.1277 41.3162 56.3365 41.7099C56.9212 42.8913 57.5282 44.55 56.3506 46.3594C56.4965 46.9192 56.6856 47.467 56.916 47.9975Z" fill="#8CD9FF"/>
<path d="M41.6726 38.5577C41.6059 37.0842 42.1632 36.0446 43.1798 35.8755L40.6005 34.0982L38.7349 34.9134C39.2163 36.2404 40.4454 37.6896 41.6726 38.5577Z" fill="black"/>
<path d="M45.882 30.3254C45.2785 29.8083 44.822 29.8512 44.0964 30.1647C43.3263 29.4613 42.3297 29.3606 41.2929 29.7166C40.2562 30.0726 38.6593 30.5548 37.726 30.8068C37.674 30.8264 37.6173 30.8305 37.5629 30.8189C37.5085 30.807 37.4586 30.78 37.4191 30.7408C37.3797 30.7015 37.3524 30.6518 37.3404 30.5974C37.3282 30.5431 37.3321 30.4864 37.3513 30.4343L38.0287 27.9414C35.8128 29.6087 35.0971 33.1602 35.8086 35.0885C36.5202 37.0167 39.5921 36.9866 40.5661 36.444C41.54 35.9014 41.8716 35.7343 42.9931 35.9385C44.1146 36.1427 44.9868 36.2853 46.4571 35.16L47.328 34.8667C47.6544 32.9769 47.3597 31.6078 45.882 30.3254Z" fill="#3442D9"/>
<path d="M45.882 30.3253C45.2785 29.8082 44.822 29.8511 44.0964 30.1647C43.3263 29.4613 42.3297 29.3605 41.2929 29.7165C40.2561 30.0725 38.6593 30.5548 37.726 30.8067" stroke="black" stroke-miterlimit="10" stroke-linecap="round"/>
<path d="M44.0964 30.1648C44.7179 30.643 45.2359 31.2422 45.6197 31.9258C46.0035 32.6096 46.2449 33.364 46.3295 34.1433" stroke="black" stroke-miterlimit="10" stroke-linecap="round"/>
<path d="M50.3839 29.5231C50.3932 29.4944 50.3962 29.4641 50.3926 29.434C50.389 29.4041 50.3789 29.3753 50.3629 29.3498C50.347 29.3241 50.3258 29.3022 50.3006 29.2856C50.2754 29.2691 50.247 29.2582 50.2171 29.2537L50.0095 29.2543C49.9518 29.2419 49.8914 29.2524 49.8412 29.2835C49.7909 29.3146 49.7547 29.3639 49.7402 29.4212L49.5554 30.1068C49.546 30.1371 49.5436 30.1691 49.5485 30.2004C49.5533 30.2317 49.5652 30.2614 49.5832 30.2875C49.6013 30.3134 49.6252 30.3349 49.6529 30.3504C49.6805 30.3656 49.7115 30.3745 49.7431 30.376L49.9506 30.3754C50.0052 30.3823 50.0604 30.369 50.1062 30.3384C50.1518 30.3077 50.1848 30.2618 50.1992 30.2086L50.3839 29.5231Z" fill="#29CC7A"/>
<path d="M47.0508 25.5478C47.2103 25.2224 47.4462 24.9407 47.7383 24.7266C48.0305 24.5124 48.3703 24.3722 48.7284 24.3181C48.7699 24.3179 48.7905 24.2763 48.7697 24.2557C48.4968 23.2602 48.6197 22.6993 48.9703 21.9718C48.9739 21.9665 48.9761 21.9605 48.9769 21.9542C48.9777 21.9479 48.9771 21.9416 48.9752 21.9356C48.9731 21.9295 48.9698 21.9241 48.9652 21.9196C48.9608 21.9151 48.9554 21.9117 48.9494 21.9096C47.7855 21.415 47.3471 20.586 47.2207 19.9637C47.1998 19.9222 47.1375 19.9017 47.1168 19.9432C46.6011 20.9826 45.8955 21.0263 45.2933 20.9451C45.2518 20.9452 45.2311 20.9868 45.2519 21.0075C45.8574 22.168 45.424 22.9996 44.8239 23.5826C44.8208 23.5908 44.8191 23.5995 44.8196 23.6083C44.82 23.617 44.8223 23.6256 44.8263 23.6334C44.8303 23.6413 44.8357 23.6482 44.8425 23.6537C44.8492 23.6592 44.8571 23.6633 44.8656 23.6655C46.0286 23.8696 46.6536 24.6357 46.9469 25.5273C46.9678 25.5688 47.0302 25.5893 47.0508 25.5478Z" fill="#FFC619"/>
<path d="M49.7715 32.9082L48.5879 32.7457" stroke="black" stroke-miterlimit="10" stroke-linecap="round"/>
<path d="M51.9299 32.8394L52.5945 32.9411" stroke="black" stroke-miterlimit="10" stroke-linecap="round"/>
<path d="M47.179 19.9223C47.6944 18.7584 47.6504 17.949 47.5037 17.4928" stroke="black" stroke-miterlimit="10" stroke-linecap="round"/>
<path d="M48.8456 21.9514C49.1695 22.0001 49.5003 21.9784 49.8151 21.8879C50.1302 21.7974 50.4219 21.6402 50.6706 21.427" stroke="black" stroke-miterlimit="10" stroke-linecap="round"/>
<path d="M47.0508 25.5478C47.0529 25.7022 47.0324 25.8563 46.9899 26.0046" stroke="black" stroke-miterlimit="10" stroke-linecap="round"/>
<path d="M44.9276 23.6031C44.1613 24.1451 42.9986 24.0656 42.1884 23.819" stroke="black" stroke-miterlimit="10" stroke-linecap="round"/>
<path d="M45.2932 20.945C45.0008 20.344 44.4591 19.6607 43.9602 19.4338" stroke="black" stroke-miterlimit="10" stroke-linecap="round"/>
<path d="M48.7695 24.2555C49.0377 24.3976 49.3245 24.5015 49.6215 24.5643" stroke="black" stroke-miterlimit="10" stroke-linecap="round"/>
<path d="M46.5419 22.0415C46.8989 23.4104 47.3553 23.326 47.5616 22.9102C47.7679 22.4944 47.9117 21.9751 48.2439 22.0156C48.5761 22.0561 48.4949 22.6375 48.103 23.469C47.7111 24.3005 47.0682 24.4892 46.4641 23.7646C45.86 23.0399 45.8371 22.3342 45.8148 21.8361C45.7925 21.3381 46.3111 21.2119 46.5419 22.0415Z" fill="#C40655"/>
<path d="M45.7247 26.3613C45.9825 29.225 44.5337 30.5993 44.0857 33.4444" stroke="white" stroke-miterlimit="10" stroke-linecap="round"/>
<path d="M49.0318 42.2925C48.6545 41.069 48.4817 38.8277 49.4928 36.8528" stroke="black" stroke-width="2" stroke-miterlimit="10" stroke-linecap="round"/>
<path d="M38.535 30.576L37.0005 31.0788" stroke="black" stroke-miterlimit="10" stroke-linecap="round"/>
<path d="M53.7905 30.3429L54.8292 30.6303" stroke="black" stroke-miterlimit="10" stroke-linecap="round"/>
</g>
<g clip-path="url(#clip4_302_653)">
<rect x="10.0044" y="7.12341" width="29.1892" height="29.1892" rx="14.5946" transform="rotate(-0.173721 10.0044 7.12341)" fill="url(#paint0_linear_302_653)"/>
<path d="M36.5188 18.7086C38.0295 12.891 38.7609 11.8577 42.2968 19.346L36.5188 18.7086Z" fill="#D4E1FF"/>
<path d="M22.0857 31.1716L21.947 31.2918C24.0568 33.2694 27.2689 38.3576 32.1305 38.0857C32.1305 38.0857 36.0825 45.2552 40.3085 44.4493C44.5344 43.6426 47.6519 37.681 47.6519 37.681C48.7907 35.6233 49.5947 33.3974 50.0338 31.0869C49.9727 30.5519 49.7729 30.1355 49.3953 29.8787C46.3718 27.8845 24.2842 29.5586 22.0857 31.1716Z" fill="#1C1B29"/>
<path d="M28.4527 16.4316L32.8823 17.6082C34.1977 17.0412 35.6164 16.7534 37.0487 16.7631C43.7971 16.7426 47.4064 22.2073 47.4268 28.9323C47.4472 35.6582 43.8711 41.1446 37.1227 41.165C30.3735 41.1855 26.7843 35.7208 26.7639 28.995C26.7568 28.0046 26.8334 27.0154 26.9928 26.0379C27.4422 23.4571 27.3128 20.8073 26.6117 18.2822C26.5435 18.0269 26.5434 17.7582 26.6115 17.5029C26.6797 17.2476 26.8136 17.0147 27 16.8274C27.1863 16.6401 27.4185 16.5049 27.6735 16.4355C27.9284 16.366 28.1971 16.3647 28.4527 16.4316Z" fill="#B3CAFF"/>
<path d="M47.1978 31.85C43.9269 33.308 40.5481 31.7898 37.2872 29.9354C33.7276 27.9027 31.429 22.7314 30.4516 21.0879C29.4743 19.4435 28.0832 19.1311 27.1237 16.7338C26.897 16.9141 26.728 17.1567 26.6372 17.4317C26.5463 17.7068 26.5378 18.0023 26.6125 18.2822C27.3131 20.8075 27.443 23.457 26.9928 26.0388C26.8335 27.016 26.7569 28.0049 26.7639 28.995C26.7843 35.7209 30.3936 41.1855 37.1227 41.1651C42.8594 41.1477 46.3011 37.1692 47.1978 31.8492L47.1978 31.85Z" fill="#8DAEF7"/>
<path d="M46.5965 29.847C46.6124 35.0846 43.509 39.3401 39.6776 39.3517C35.847 39.3634 32.7372 35.1267 32.7213 29.889C32.6951 21.2394 38.0956 28.3058 41.927 28.2942C45.7576 28.2826 46.6728 22.4273 46.5965 29.847Z" fill="#FCFDFF"/>
<path d="M39.779 34.9181C40.151 34.8856 40.4081 34.3641 40.3557 33.7528C40.3024 33.1414 39.9578 32.6724 39.5867 32.704C39.2155 32.7373 38.9575 33.2588 39.0108 33.8693C39.0641 34.4807 39.4079 34.9506 39.779 34.9181ZM44.3362 33.891C44.4452 33.2872 44.2363 32.7438 43.8688 32.6782C43.5022 32.6118 43.1162 33.0477 43.0071 33.6515C42.8989 34.2545 43.1079 34.7979 43.4745 34.8643C43.8411 34.9307 44.2271 34.4948 44.3362 33.891Z" fill="#1C1B29"/>
<path d="M59.855 94.9196C57.0378 95.5236 48.5776 87.5143 48.5776 87.5143C50.9221 94.8077 51.3257 96.989 51.7283 98.8721C52.131 100.756 51.8935 101.134 51.7392 102.463C51.5841 103.793 51.584 103.753 52.383 105.418C53.182 107.081 53.7022 108.25 53.8631 109.103C53.9241 109.599 53.9055 110.101 53.8081 110.591L18.3371 110.698C18.3371 110.698 18.1555 109.906 18.9033 107.701C19.6512 105.497 21.3725 103.667 22.3206 102.274C23.2694 100.883 23.2103 101.022 22.9506 100.448C21.7512 97.6339 23.6784 98.2436 24.4796 94.0152C25.28 89.7867 25.4777 69.6293 27.2583 61.3912C29.0398 53.1524 31.7933 51.1994 31.9712 44.3942C28.6068 41.2705 20.2651 33.1411 21.947 31.291C23.8577 33.0707 29.5769 33.9269 34.2415 33.8733C34.6507 33.8662 35.0517 33.9883 35.3874 34.2224C35.7231 34.4564 35.9765 34.7903 36.1114 35.1767C36.9126 37.5745 38.9319 42.3103 42.0864 41.6852C45.241 41.0609 47.5655 35.4192 48.215 33.3737C48.3519 32.9272 48.6377 32.5412 49.0249 32.28C49.4473 31.9643 49.7923 31.5565 50.0338 31.0877C50.4828 34.9941 44.0229 45.3694 44.0229 45.3694C44.0229 45.3694 45.6735 59.4108 48.9034 64.0232C52.1325 68.6364 61.1646 68.609 61.3957 73.0127C61.6276 77.4156 62.652 94.3157 59.855 94.9196Z" fill="#BD4070"/>
<path d="M32.4007 35.5448C30.0579 35.4128 26.9011 35.0254 21.8318 32.5216C22.654 35.4747 29.1248 41.7245 31.9711 44.3942C31.9347 46.505 31.559 48.5961 30.8585 50.5875C33.4296 54.2103 36.5194 51.84 37.1064 62.0356C37.3575 66.3798 40.5707 72.1429 43.9245 78.3822C47.2783 84.6214 47.6999 73.133 47.5437 67.4795C47.4548 64.4045 46.8285 60.5975 46.1618 56.9689C44.7365 51.4776 44.0229 45.3694 44.0229 45.3694C44.0229 45.3694 48.5467 38.0946 49.7628 33.4486C49.4532 33.6424 49.2114 33.9276 49.071 34.2639C47.848 37.0438 46.478 39.7566 44.9669 42.3909C43.4063 45.0346 40.4926 46.3524 37.1219 41.1651C33.752 35.977 34.922 35.6962 32.4007 35.5448Z" fill="#A12C66"/>
<path d="M33.8403 25.8195C37.3393 27.4948 38.5568 29.6342 41.3554 29.5462C44.154 29.4582 45.2411 28.1057 46.3671 26.2974C45.9076 25.3064 44.6663 28.2858 41.9269 28.2941C39.1876 28.3024 35.6038 24.6434 33.8403 25.8195Z" fill="#8DAEF7"/>
</g>
<path d="M126.455 25.4506L126.449 23.1946L124.097 23.2017L124.093 21.8417L126.445 21.8346L126.437 19.4986L127.829 19.4944L127.837 21.8304L130.189 21.8232L130.193 23.1832L127.841 23.1903L127.847 25.4463L126.455 25.4506Z" fill="#263238"/>
<path d="M141.874 28.9588L141.866 26.2548L136.73 26.2704L136.726 25.0224L142.288 17.7895L143.248 17.7866L143.27 24.9705L144.678 24.9663L144.682 26.2462L143.274 26.2505L143.282 28.9545L141.874 28.9588ZM138.182 24.986L142.006 24.9744L141.991 19.9664L138.182 24.986ZM154.215 22.2013C154.218 23.14 154.045 23.9779 153.695 24.7149C153.345 25.4413 152.867 26.0134 152.26 26.4313C151.653 26.8491 150.961 27.0592 150.182 27.0616C149.403 27.0639 148.709 26.858 148.1 26.4439C147.491 26.0297 147.009 25.4605 146.655 24.7363C146.301 24.0013 146.122 23.1645 146.119 22.2259C146.116 21.2872 146.29 20.4547 146.64 19.7283C146.99 18.9912 147.468 18.4138 148.075 17.9959C148.681 17.5674 149.374 17.352 150.153 17.3496C150.931 17.3473 151.625 17.5585 152.235 17.9833C152.844 18.3975 153.326 18.972 153.68 19.7069C154.034 20.4312 154.212 21.2627 154.215 22.2013ZM152.791 22.2056C152.789 21.5016 152.675 20.8833 152.45 20.3507C152.224 19.818 151.913 19.403 151.518 19.1055C151.122 18.808 150.669 18.6601 150.157 18.6616C149.634 18.6632 149.176 18.8139 148.782 19.1138C148.388 19.4136 148.08 19.8306 147.858 20.3646C147.635 20.8986 147.525 21.5176 147.527 22.2216C147.529 22.9256 147.643 23.5439 147.869 24.0766C148.095 24.5986 148.405 25.0083 148.801 25.3058C149.196 25.6032 149.655 25.7512 150.178 25.7496C150.69 25.748 151.143 25.5973 151.537 25.2975C151.93 24.9976 152.239 24.586 152.461 24.0627C152.683 23.5286 152.793 22.9096 152.791 22.2056Z" fill="#263238"/>
<path d="M161.125 26.0083C160.519 26.0102 159.949 25.9139 159.416 25.7195C158.884 25.5158 158.426 25.2139 158.042 24.8137L158.515 23.9442C158.936 24.335 159.357 24.6137 159.778 24.7804C160.198 24.9471 160.628 25.0298 161.066 25.0285C161.57 25.027 161.981 24.9324 162.298 24.7448C162.614 24.5478 162.772 24.2627 162.771 23.8893C162.77 23.6187 162.686 23.4183 162.517 23.2881C162.358 23.1579 162.129 23.0513 161.83 22.9682C161.531 22.8758 161.176 22.7742 160.765 22.6634C160.261 22.5156 159.836 22.3582 159.49 22.1913C159.144 22.0243 158.882 21.8151 158.704 21.5637C158.526 21.3122 158.436 20.9951 158.435 20.6125C158.434 20.1458 158.554 19.7534 158.795 19.4354C159.037 19.108 159.368 18.8596 159.787 18.6904C160.216 18.5211 160.701 18.4356 161.242 18.434C161.784 18.4323 162.274 18.5148 162.713 18.6815C163.152 18.8482 163.531 19.0943 163.849 19.4201L163.292 20.2757C163.002 19.978 162.684 19.7596 162.338 19.6206C161.992 19.4724 161.605 19.3989 161.175 19.4002C160.923 19.4009 160.676 19.4343 160.434 19.5004C160.191 19.5571 159.991 19.6651 159.833 19.8242C159.674 19.974 159.596 20.189 159.597 20.469C159.597 20.7023 159.659 20.8888 159.78 21.0284C159.911 21.1587 160.098 21.2701 160.341 21.3627C160.594 21.4553 160.897 21.557 161.252 21.6679C161.803 21.8249 162.28 21.9822 162.682 22.1396C163.093 22.297 163.411 22.5014 163.636 22.7527C163.86 23.004 163.973 23.3537 163.975 23.8017C163.977 24.4924 163.717 25.0345 163.196 25.4281C162.674 25.8123 161.984 26.0057 161.125 26.0083ZM169.234 25.4798C169.131 25.5267 168.991 25.5878 168.814 25.663C168.637 25.7382 168.432 25.8042 168.199 25.8609C167.966 25.9176 167.718 25.9464 167.457 25.9471C167.158 25.948 166.883 25.8976 166.631 25.7956C166.378 25.6844 166.177 25.517 166.027 25.2935C165.877 25.0606 165.802 24.7715 165.801 24.4262L165.786 19.5122L164.792 19.5152L164.789 18.5492L165.783 18.5462L165.775 16.1102L167.007 16.1065L167.015 18.5425L168.653 18.5375L168.656 19.5035L167.018 19.5084L167.031 24.0444C167.051 24.3057 167.14 24.5014 167.299 24.6316C167.458 24.7525 167.645 24.8126 167.86 24.8119C168.102 24.8112 168.326 24.7685 168.531 24.6839C168.736 24.5993 168.872 24.5382 168.937 24.5007L169.234 25.4798ZM170.298 22.9145L170.285 18.5325L171.517 18.5288L171.529 22.6728C171.531 23.4194 171.664 23.979 171.926 24.3516C172.189 24.7241 172.577 24.9096 173.09 24.9081C173.426 24.907 173.748 24.8361 174.055 24.6951C174.372 24.5448 174.656 24.334 174.907 24.0625C175.159 23.7911 175.354 23.4685 175.492 23.0948L175.479 18.5168L176.711 18.5131L176.728 24.421C176.729 24.5704 176.757 24.6823 176.813 24.7568C176.879 24.8219 176.982 24.8589 177.122 24.8678L177.125 25.8198C176.985 25.8389 176.873 25.8486 176.789 25.8489C176.714 25.8584 176.639 25.8633 176.565 25.8635C176.331 25.8642 176.131 25.7948 175.962 25.6554C175.794 25.5065 175.705 25.3248 175.695 25.1102L175.664 24.2563C175.348 24.7985 174.92 25.2198 174.38 25.5202C173.849 25.8204 173.266 25.9715 172.631 25.9735C171.866 25.9758 171.286 25.7209 170.893 25.2087C170.499 24.6872 170.301 23.9225 170.298 22.9145ZM178.298 22.1763C178.296 21.4856 178.434 20.8552 178.712 20.285C179 19.7055 179.39 19.2423 179.884 18.8954C180.387 18.5486 180.96 18.3742 181.604 18.3722C182.192 18.3704 182.72 18.5228 183.188 18.8294C183.655 19.136 184.02 19.5082 184.283 19.9461L184.27 15.5781L185.502 15.5744L185.529 24.3943C185.529 24.5437 185.557 24.6556 185.614 24.7301C185.679 24.7952 185.782 24.8322 185.922 24.8412L185.925 25.7931C185.692 25.8312 185.51 25.8504 185.379 25.8508C185.136 25.8515 184.921 25.7682 184.734 25.6008C184.556 25.4333 184.467 25.2469 184.467 25.0416L184.465 24.4256C184.177 24.8931 183.791 25.263 183.306 25.5351C182.822 25.8072 182.318 25.9441 181.795 25.9457C181.291 25.9472 180.824 25.8506 180.394 25.6559C179.974 25.4519 179.604 25.173 179.286 24.8193C178.977 24.4655 178.733 24.0649 178.554 23.6175C178.385 23.1607 178.299 22.6803 178.298 22.1763ZM184.293 23.2361L184.287 21.1361C184.174 20.8191 183.991 20.535 183.738 20.2838C183.485 20.0232 183.2 19.8187 182.882 19.6703C182.574 19.5126 182.266 19.4342 181.958 19.4351C181.594 19.4363 181.262 19.5166 180.964 19.6762C180.675 19.8264 180.424 20.0325 180.21 20.2945C180.006 20.5471 179.848 20.8369 179.737 21.1639C179.626 21.4909 179.571 21.8317 179.572 22.1864C179.573 22.5504 179.635 22.8955 179.757 23.2218C179.889 23.5481 180.067 23.8369 180.292 24.0882C180.526 24.3395 180.792 24.5347 181.091 24.6738C181.4 24.8129 181.731 24.8819 182.086 24.8808C182.31 24.8801 182.539 24.8374 182.772 24.7527C183.014 24.668 183.242 24.5506 183.457 24.4006C183.671 24.2506 183.852 24.0774 184.001 23.881C184.15 23.6752 184.247 23.4602 184.293 23.2361ZM190.824 25.9183C190.273 25.92 189.769 25.8235 189.311 25.6289C188.862 25.4249 188.47 25.1508 188.133 24.8065C187.805 24.4528 187.547 24.0476 187.359 23.5908C187.18 23.134 187.09 22.6489 187.088 22.1356C187.086 21.4449 187.243 20.8145 187.559 20.2442C187.874 19.6739 188.312 19.2152 188.871 18.8682C189.439 18.5211 190.087 18.3465 190.815 18.3443C191.552 18.3421 192.192 18.5174 192.735 18.8705C193.286 19.2141 193.712 19.6702 194.013 20.2386C194.322 20.7977 194.478 21.4039 194.48 22.0572C194.481 22.1505 194.476 22.2439 194.467 22.3372C194.467 22.4212 194.463 22.4866 194.454 22.5333L188.392 22.5517C188.43 23.0275 188.562 23.4518 188.788 23.8245C189.022 24.1878 189.322 24.4762 189.686 24.6897C190.051 24.894 190.443 24.9954 190.863 24.9942C191.311 24.9928 191.731 24.8795 192.122 24.6544C192.523 24.4291 192.797 24.1343 192.945 23.7699L194.01 24.0606C193.853 24.4158 193.616 24.7338 193.299 25.0148C192.992 25.2957 192.624 25.5162 192.195 25.6761C191.776 25.8361 191.319 25.9168 190.824 25.9183ZM188.347 21.6978L193.331 21.6827C193.292 21.2068 193.156 20.7872 192.921 20.4239C192.687 20.0606 192.387 19.7769 192.023 19.5726C191.658 19.3684 191.256 19.267 190.818 19.2683C190.388 19.2696 189.992 19.3735 189.629 19.5799C189.265 19.7863 188.968 20.0719 188.735 20.4366C188.512 20.8013 188.383 21.2217 188.347 21.6978ZM202.203 25.7438L200.971 25.7475L200.959 21.6595C200.956 20.8849 200.833 20.3206 200.589 19.9667C200.355 19.6034 199.995 19.4225 199.51 19.4239C199.174 19.4249 198.838 19.51 198.503 19.679C198.176 19.848 197.883 20.0775 197.623 20.3677C197.371 20.6484 197.19 20.9756 197.08 21.3493L197.093 25.7593L195.861 25.763L195.839 18.4551L196.959 18.4517L196.964 20.0197C197.159 19.6737 197.41 19.3743 197.717 19.1214C198.024 18.8684 198.373 18.6714 198.765 18.5302C199.157 18.389 199.567 18.3178 199.996 18.3165C200.416 18.3152 200.767 18.3934 201.047 18.5513C201.337 18.6997 201.562 18.9137 201.721 19.1932C201.89 19.4634 202.008 19.785 202.074 20.1582C202.15 20.5313 202.188 20.9371 202.19 21.3758L202.203 25.7438ZM207.829 25.3627C207.727 25.4097 207.587 25.4708 207.41 25.546C207.233 25.6212 207.028 25.6872 206.794 25.7439C206.561 25.8006 206.314 25.8293 206.053 25.8301C205.754 25.831 205.479 25.7805 205.226 25.6786C204.974 25.5674 204.773 25.4 204.623 25.1765C204.473 24.9436 204.397 24.6545 204.396 24.3091L204.381 19.3952L203.387 19.3982L203.384 18.4322L204.378 18.4292L204.371 15.9932L205.603 15.9894L205.61 18.4254L207.248 18.4205L207.251 19.3865L205.613 19.3914L205.627 23.9274C205.646 24.1887 205.736 24.3844 205.895 24.5146C206.054 24.6354 206.241 24.6955 206.455 24.6949C206.698 24.6942 206.922 24.6515 207.127 24.5669C207.332 24.4822 207.467 24.4212 207.532 24.3836L207.829 25.3627ZM211.479 25.8557C210.872 25.8575 210.302 25.7612 209.77 25.5669C209.237 25.3631 208.779 25.0612 208.395 24.661L208.868 23.7916C209.29 24.1823 209.71 24.461 210.131 24.6278C210.551 24.7945 210.981 24.8772 211.42 24.8758C211.924 24.8743 212.334 24.7797 212.651 24.5921C212.968 24.3951 213.125 24.11 213.124 23.7367C213.123 23.466 213.039 23.2656 212.87 23.1354C212.711 23.0053 212.482 22.8986 212.183 22.8155C211.884 22.7231 211.53 22.6215 211.119 22.5107C210.614 22.3629 210.189 22.2056 209.843 22.0386C209.497 21.8717 209.235 21.6625 209.057 21.411C208.879 21.1595 208.789 20.8425 208.788 20.4598C208.787 19.9931 208.907 19.6008 209.149 19.2827C209.39 18.9553 209.721 18.707 210.14 18.5377C210.569 18.3684 211.054 18.2829 211.596 18.2813C212.137 18.2796 212.627 18.3622 213.066 18.5288C213.506 18.6955 213.884 18.9417 214.203 19.2674L213.645 20.1231C213.355 19.8253 213.037 19.6069 212.691 19.468C212.346 19.3197 211.958 19.2462 211.529 19.2475C211.277 19.2483 211.029 19.2817 210.787 19.3477C210.544 19.4045 210.344 19.5124 210.186 19.6716C210.028 19.8214 209.949 20.0363 209.95 20.3163C209.951 20.5496 210.012 20.7361 210.134 20.8757C210.265 21.006 210.452 21.1174 210.695 21.21C210.947 21.3026 211.25 21.4043 211.605 21.5153C212.157 21.6723 212.633 21.8295 213.035 21.9869C213.446 22.1444 213.764 22.3487 213.989 22.6C214.214 22.8514 214.327 23.201 214.328 23.649C214.33 24.3397 214.07 24.8818 213.549 25.2754C213.027 25.6596 212.337 25.8531 211.479 25.8557Z" fill="#263238"/>
<defs>
<linearGradient id="paint0_linear_302_653" x1="24.599" y1="36.445" x2="24.599" y2="15.5367" gradientUnits="userSpaceOnUse">
<stop stop-color="#7196FF"/>
<stop offset="1" stop-color="#2A5EE8"/>
</linearGradient>
<clipPath id="clip0_302_653">
<rect x="88.8103" y="5.42505" width="29.1892" height="29.1892" rx="14.5946" transform="rotate(-0.173721 88.8103 5.42505)" fill="white"/>
</clipPath>
<clipPath id="clip1_302_653">
<rect x="73.2429" y="5.47229" width="29.1892" height="29.1892" rx="14.5946" transform="rotate(-0.173721 73.2429 5.47229)" fill="white"/>
</clipPath>
<clipPath id="clip2_302_653">
<rect x="51.8406" y="6.51013" width="29.1892" height="29.1892" rx="14.5946" transform="rotate(-0.173721 51.8406 6.51013)" fill="white"/>
</clipPath>
<clipPath id="clip3_302_653">
<rect x="30.9233" y="7.05994" width="29.1892" height="29.1892" rx="14.5946" transform="rotate(-0.173721 30.9233 7.05994)" fill="white"/>
</clipPath>
<clipPath id="clip4_302_653">
<rect x="10.0044" y="7.12341" width="29.1892" height="29.1892" rx="14.5946" transform="rotate(-0.173721 10.0044 7.12341)" fill="white"/>
</clipPath>
</defs>
</svg>
